%TF.GenerationSoftware,KiCad,Pcbnew,9.0.1*%
%TF.CreationDate,2025-10-16T23:05:19+05:30*%
%TF.ProjectId,CANSAT,43414e53-4154-42e6-9b69-6361645f7063,rev?*%
%TF.SameCoordinates,Original*%
%TF.FileFunction,Legend,Bot*%
%TF.FilePolarity,Positive*%
%FSLAX46Y46*%
G04 Gerber Fmt 4.6, Leading zero omitted, Abs format (unit mm)*
G04 Created by KiCad (PCBNEW 9.0.1) date 2025-10-16 23:05:19*
%MOMM*%
%LPD*%
G01*
G04 APERTURE LIST*
%ADD10C,0.100000*%
%ADD11C,0.200000*%
%ADD12C,0.300000*%
%ADD13C,0.150000*%
%ADD14C,0.120000*%
%ADD15C,0.127000*%
G04 APERTURE END LIST*
D10*
X160100000Y-109780000D02*
X176130000Y-109780000D01*
X176130000Y-140760000D01*
X160100000Y-140760000D01*
X160100000Y-109780000D01*
D11*
X87790000Y-83855000D02*
X101710000Y-83855000D01*
X101710000Y-98885000D01*
X87790000Y-98885000D01*
X87790000Y-83855000D01*
D12*
X97866917Y-91404400D02*
X97652632Y-91475828D01*
X97652632Y-91475828D02*
X97295489Y-91475828D01*
X97295489Y-91475828D02*
X97152632Y-91404400D01*
X97152632Y-91404400D02*
X97081203Y-91332971D01*
X97081203Y-91332971D02*
X97009774Y-91190114D01*
X97009774Y-91190114D02*
X97009774Y-91047257D01*
X97009774Y-91047257D02*
X97081203Y-90904400D01*
X97081203Y-90904400D02*
X97152632Y-90832971D01*
X97152632Y-90832971D02*
X97295489Y-90761542D01*
X97295489Y-90761542D02*
X97581203Y-90690114D01*
X97581203Y-90690114D02*
X97724060Y-90618685D01*
X97724060Y-90618685D02*
X97795489Y-90547257D01*
X97795489Y-90547257D02*
X97866917Y-90404400D01*
X97866917Y-90404400D02*
X97866917Y-90261542D01*
X97866917Y-90261542D02*
X97795489Y-90118685D01*
X97795489Y-90118685D02*
X97724060Y-90047257D01*
X97724060Y-90047257D02*
X97581203Y-89975828D01*
X97581203Y-89975828D02*
X97224060Y-89975828D01*
X97224060Y-89975828D02*
X97009774Y-90047257D01*
X96366918Y-91475828D02*
X96366918Y-89975828D01*
X96366918Y-90690114D02*
X95509775Y-90690114D01*
X95509775Y-91475828D02*
X95509775Y-89975828D01*
X95009774Y-89975828D02*
X94152632Y-89975828D01*
X94581203Y-91475828D02*
X94581203Y-89975828D01*
X93009775Y-90475828D02*
X93009775Y-91475828D01*
X93366917Y-89904400D02*
X93724060Y-90975828D01*
X93724060Y-90975828D02*
X92795489Y-90975828D01*
X91438346Y-91475828D02*
X92295489Y-91475828D01*
X91866918Y-91475828D02*
X91866918Y-89975828D01*
X91866918Y-89975828D02*
X92009775Y-90190114D01*
X92009775Y-90190114D02*
X92152632Y-90332971D01*
X92152632Y-90332971D02*
X92295489Y-90404400D01*
D10*
X167565200Y-49788734D02*
X167517580Y-49645877D01*
X167517580Y-49645877D02*
X167517580Y-49407782D01*
X167517580Y-49407782D02*
X167565200Y-49312544D01*
X167565200Y-49312544D02*
X167612819Y-49264925D01*
X167612819Y-49264925D02*
X167708057Y-49217306D01*
X167708057Y-49217306D02*
X167803295Y-49217306D01*
X167803295Y-49217306D02*
X167898533Y-49264925D01*
X167898533Y-49264925D02*
X167946152Y-49312544D01*
X167946152Y-49312544D02*
X167993771Y-49407782D01*
X167993771Y-49407782D02*
X168041390Y-49598258D01*
X168041390Y-49598258D02*
X168089009Y-49693496D01*
X168089009Y-49693496D02*
X168136628Y-49741115D01*
X168136628Y-49741115D02*
X168231866Y-49788734D01*
X168231866Y-49788734D02*
X168327104Y-49788734D01*
X168327104Y-49788734D02*
X168422342Y-49741115D01*
X168422342Y-49741115D02*
X168469961Y-49693496D01*
X168469961Y-49693496D02*
X168517580Y-49598258D01*
X168517580Y-49598258D02*
X168517580Y-49360163D01*
X168517580Y-49360163D02*
X168469961Y-49217306D01*
X167517580Y-48788734D02*
X168517580Y-48788734D01*
X168517580Y-48788734D02*
X168517580Y-48550639D01*
X168517580Y-48550639D02*
X168469961Y-48407782D01*
X168469961Y-48407782D02*
X168374723Y-48312544D01*
X168374723Y-48312544D02*
X168279485Y-48264925D01*
X168279485Y-48264925D02*
X168089009Y-48217306D01*
X168089009Y-48217306D02*
X167946152Y-48217306D01*
X167946152Y-48217306D02*
X167755676Y-48264925D01*
X167755676Y-48264925D02*
X167660438Y-48312544D01*
X167660438Y-48312544D02*
X167565200Y-48407782D01*
X167565200Y-48407782D02*
X167517580Y-48550639D01*
X167517580Y-48550639D02*
X167517580Y-48788734D01*
X167612819Y-47217306D02*
X167565200Y-47264925D01*
X167565200Y-47264925D02*
X167517580Y-47407782D01*
X167517580Y-47407782D02*
X167517580Y-47503020D01*
X167517580Y-47503020D02*
X167565200Y-47645877D01*
X167565200Y-47645877D02*
X167660438Y-47741115D01*
X167660438Y-47741115D02*
X167755676Y-47788734D01*
X167755676Y-47788734D02*
X167946152Y-47836353D01*
X167946152Y-47836353D02*
X168089009Y-47836353D01*
X168089009Y-47836353D02*
X168279485Y-47788734D01*
X168279485Y-47788734D02*
X168374723Y-47741115D01*
X168374723Y-47741115D02*
X168469961Y-47645877D01*
X168469961Y-47645877D02*
X168517580Y-47503020D01*
X168517580Y-47503020D02*
X168517580Y-47407782D01*
X168517580Y-47407782D02*
X168469961Y-47264925D01*
X168469961Y-47264925D02*
X168422342Y-47217306D01*
X167803295Y-46836353D02*
X167803295Y-46360163D01*
X167517580Y-46931591D02*
X168517580Y-46598258D01*
X168517580Y-46598258D02*
X167517580Y-46264925D01*
X167517580Y-45360163D02*
X167993771Y-45693496D01*
X167517580Y-45931591D02*
X168517580Y-45931591D01*
X168517580Y-45931591D02*
X168517580Y-45550639D01*
X168517580Y-45550639D02*
X168469961Y-45455401D01*
X168469961Y-45455401D02*
X168422342Y-45407782D01*
X168422342Y-45407782D02*
X168327104Y-45360163D01*
X168327104Y-45360163D02*
X168184247Y-45360163D01*
X168184247Y-45360163D02*
X168089009Y-45407782D01*
X168089009Y-45407782D02*
X168041390Y-45455401D01*
X168041390Y-45455401D02*
X167993771Y-45550639D01*
X167993771Y-45550639D02*
X167993771Y-45931591D01*
X167517580Y-44931591D02*
X168517580Y-44931591D01*
X168517580Y-44931591D02*
X168517580Y-44693496D01*
X168517580Y-44693496D02*
X168469961Y-44550639D01*
X168469961Y-44550639D02*
X168374723Y-44455401D01*
X168374723Y-44455401D02*
X168279485Y-44407782D01*
X168279485Y-44407782D02*
X168089009Y-44360163D01*
X168089009Y-44360163D02*
X167946152Y-44360163D01*
X167946152Y-44360163D02*
X167755676Y-44407782D01*
X167755676Y-44407782D02*
X167660438Y-44455401D01*
X167660438Y-44455401D02*
X167565200Y-44550639D01*
X167565200Y-44550639D02*
X167517580Y-44693496D01*
X167517580Y-44693496D02*
X167517580Y-44931591D01*
D12*
X146110489Y-81650114D02*
X145896203Y-81721542D01*
X145896203Y-81721542D02*
X145824774Y-81792971D01*
X145824774Y-81792971D02*
X145753346Y-81935828D01*
X145753346Y-81935828D02*
X145753346Y-82150114D01*
X145753346Y-82150114D02*
X145824774Y-82292971D01*
X145824774Y-82292971D02*
X145896203Y-82364400D01*
X145896203Y-82364400D02*
X146039060Y-82435828D01*
X146039060Y-82435828D02*
X146610489Y-82435828D01*
X146610489Y-82435828D02*
X146610489Y-80935828D01*
X146610489Y-80935828D02*
X146110489Y-80935828D01*
X146110489Y-80935828D02*
X145967632Y-81007257D01*
X145967632Y-81007257D02*
X145896203Y-81078685D01*
X145896203Y-81078685D02*
X145824774Y-81221542D01*
X145824774Y-81221542D02*
X145824774Y-81364400D01*
X145824774Y-81364400D02*
X145896203Y-81507257D01*
X145896203Y-81507257D02*
X145967632Y-81578685D01*
X145967632Y-81578685D02*
X146110489Y-81650114D01*
X146110489Y-81650114D02*
X146610489Y-81650114D01*
X145110489Y-82435828D02*
X145110489Y-80935828D01*
X145110489Y-80935828D02*
X144610489Y-82007257D01*
X144610489Y-82007257D02*
X144110489Y-80935828D01*
X144110489Y-80935828D02*
X144110489Y-82435828D01*
X143396203Y-81650114D02*
X142896203Y-81650114D01*
X142681917Y-82435828D02*
X143396203Y-82435828D01*
X143396203Y-82435828D02*
X143396203Y-80935828D01*
X143396203Y-80935828D02*
X142681917Y-80935828D01*
X141396203Y-80935828D02*
X141681917Y-80935828D01*
X141681917Y-80935828D02*
X141824774Y-81007257D01*
X141824774Y-81007257D02*
X141896203Y-81078685D01*
X141896203Y-81078685D02*
X142039060Y-81292971D01*
X142039060Y-81292971D02*
X142110488Y-81578685D01*
X142110488Y-81578685D02*
X142110488Y-82150114D01*
X142110488Y-82150114D02*
X142039060Y-82292971D01*
X142039060Y-82292971D02*
X141967631Y-82364400D01*
X141967631Y-82364400D02*
X141824774Y-82435828D01*
X141824774Y-82435828D02*
X141539060Y-82435828D01*
X141539060Y-82435828D02*
X141396203Y-82364400D01*
X141396203Y-82364400D02*
X141324774Y-82292971D01*
X141324774Y-82292971D02*
X141253345Y-82150114D01*
X141253345Y-82150114D02*
X141253345Y-81792971D01*
X141253345Y-81792971D02*
X141324774Y-81650114D01*
X141324774Y-81650114D02*
X141396203Y-81578685D01*
X141396203Y-81578685D02*
X141539060Y-81507257D01*
X141539060Y-81507257D02*
X141824774Y-81507257D01*
X141824774Y-81507257D02*
X141967631Y-81578685D01*
X141967631Y-81578685D02*
X142039060Y-81650114D01*
X142039060Y-81650114D02*
X142110488Y-81792971D01*
X140396203Y-81578685D02*
X140539060Y-81507257D01*
X140539060Y-81507257D02*
X140610489Y-81435828D01*
X140610489Y-81435828D02*
X140681917Y-81292971D01*
X140681917Y-81292971D02*
X140681917Y-81221542D01*
X140681917Y-81221542D02*
X140610489Y-81078685D01*
X140610489Y-81078685D02*
X140539060Y-81007257D01*
X140539060Y-81007257D02*
X140396203Y-80935828D01*
X140396203Y-80935828D02*
X140110489Y-80935828D01*
X140110489Y-80935828D02*
X139967632Y-81007257D01*
X139967632Y-81007257D02*
X139896203Y-81078685D01*
X139896203Y-81078685D02*
X139824774Y-81221542D01*
X139824774Y-81221542D02*
X139824774Y-81292971D01*
X139824774Y-81292971D02*
X139896203Y-81435828D01*
X139896203Y-81435828D02*
X139967632Y-81507257D01*
X139967632Y-81507257D02*
X140110489Y-81578685D01*
X140110489Y-81578685D02*
X140396203Y-81578685D01*
X140396203Y-81578685D02*
X140539060Y-81650114D01*
X140539060Y-81650114D02*
X140610489Y-81721542D01*
X140610489Y-81721542D02*
X140681917Y-81864400D01*
X140681917Y-81864400D02*
X140681917Y-82150114D01*
X140681917Y-82150114D02*
X140610489Y-82292971D01*
X140610489Y-82292971D02*
X140539060Y-82364400D01*
X140539060Y-82364400D02*
X140396203Y-82435828D01*
X140396203Y-82435828D02*
X140110489Y-82435828D01*
X140110489Y-82435828D02*
X139967632Y-82364400D01*
X139967632Y-82364400D02*
X139896203Y-82292971D01*
X139896203Y-82292971D02*
X139824774Y-82150114D01*
X139824774Y-82150114D02*
X139824774Y-81864400D01*
X139824774Y-81864400D02*
X139896203Y-81721542D01*
X139896203Y-81721542D02*
X139967632Y-81650114D01*
X139967632Y-81650114D02*
X140110489Y-81578685D01*
X138896203Y-80935828D02*
X138753346Y-80935828D01*
X138753346Y-80935828D02*
X138610489Y-81007257D01*
X138610489Y-81007257D02*
X138539061Y-81078685D01*
X138539061Y-81078685D02*
X138467632Y-81221542D01*
X138467632Y-81221542D02*
X138396203Y-81507257D01*
X138396203Y-81507257D02*
X138396203Y-81864400D01*
X138396203Y-81864400D02*
X138467632Y-82150114D01*
X138467632Y-82150114D02*
X138539061Y-82292971D01*
X138539061Y-82292971D02*
X138610489Y-82364400D01*
X138610489Y-82364400D02*
X138753346Y-82435828D01*
X138753346Y-82435828D02*
X138896203Y-82435828D01*
X138896203Y-82435828D02*
X139039061Y-82364400D01*
X139039061Y-82364400D02*
X139110489Y-82292971D01*
X139110489Y-82292971D02*
X139181918Y-82150114D01*
X139181918Y-82150114D02*
X139253346Y-81864400D01*
X139253346Y-81864400D02*
X139253346Y-81507257D01*
X139253346Y-81507257D02*
X139181918Y-81221542D01*
X139181918Y-81221542D02*
X139110489Y-81078685D01*
X139110489Y-81078685D02*
X139039061Y-81007257D01*
X139039061Y-81007257D02*
X138896203Y-80935828D01*
D10*
X168242580Y-126539925D02*
X168242580Y-127016115D01*
X168242580Y-127016115D02*
X169242580Y-127016115D01*
X168242580Y-126206591D02*
X169242580Y-126206591D01*
X169242580Y-126206591D02*
X169242580Y-125825639D01*
X169242580Y-125825639D02*
X169194961Y-125730401D01*
X169194961Y-125730401D02*
X169147342Y-125682782D01*
X169147342Y-125682782D02*
X169052104Y-125635163D01*
X169052104Y-125635163D02*
X168909247Y-125635163D01*
X168909247Y-125635163D02*
X168814009Y-125682782D01*
X168814009Y-125682782D02*
X168766390Y-125730401D01*
X168766390Y-125730401D02*
X168718771Y-125825639D01*
X168718771Y-125825639D02*
X168718771Y-126206591D01*
X168290200Y-125254210D02*
X168242580Y-125111353D01*
X168242580Y-125111353D02*
X168242580Y-124873258D01*
X168242580Y-124873258D02*
X168290200Y-124778020D01*
X168290200Y-124778020D02*
X168337819Y-124730401D01*
X168337819Y-124730401D02*
X168433057Y-124682782D01*
X168433057Y-124682782D02*
X168528295Y-124682782D01*
X168528295Y-124682782D02*
X168623533Y-124730401D01*
X168623533Y-124730401D02*
X168671152Y-124778020D01*
X168671152Y-124778020D02*
X168718771Y-124873258D01*
X168718771Y-124873258D02*
X168766390Y-125063734D01*
X168766390Y-125063734D02*
X168814009Y-125158972D01*
X168814009Y-125158972D02*
X168861628Y-125206591D01*
X168861628Y-125206591D02*
X168956866Y-125254210D01*
X168956866Y-125254210D02*
X169052104Y-125254210D01*
X169052104Y-125254210D02*
X169147342Y-125206591D01*
X169147342Y-125206591D02*
X169194961Y-125158972D01*
X169194961Y-125158972D02*
X169242580Y-125063734D01*
X169242580Y-125063734D02*
X169242580Y-124825639D01*
X169242580Y-124825639D02*
X169194961Y-124682782D01*
X169147342Y-124301829D02*
X169194961Y-124254210D01*
X169194961Y-124254210D02*
X169242580Y-124158972D01*
X169242580Y-124158972D02*
X169242580Y-123920877D01*
X169242580Y-123920877D02*
X169194961Y-123825639D01*
X169194961Y-123825639D02*
X169147342Y-123778020D01*
X169147342Y-123778020D02*
X169052104Y-123730401D01*
X169052104Y-123730401D02*
X168956866Y-123730401D01*
X168956866Y-123730401D02*
X168814009Y-123778020D01*
X168814009Y-123778020D02*
X168242580Y-124349448D01*
X168242580Y-124349448D02*
X168242580Y-123730401D01*
X169147342Y-123349448D02*
X169194961Y-123301829D01*
X169194961Y-123301829D02*
X169242580Y-123206591D01*
X169242580Y-123206591D02*
X169242580Y-122968496D01*
X169242580Y-122968496D02*
X169194961Y-122873258D01*
X169194961Y-122873258D02*
X169147342Y-122825639D01*
X169147342Y-122825639D02*
X169052104Y-122778020D01*
X169052104Y-122778020D02*
X168956866Y-122778020D01*
X168956866Y-122778020D02*
X168814009Y-122825639D01*
X168814009Y-122825639D02*
X168242580Y-123397067D01*
X168242580Y-123397067D02*
X168242580Y-122778020D01*
D13*
X162603333Y-136034819D02*
X162603333Y-136749104D01*
X162603333Y-136749104D02*
X162650952Y-136891961D01*
X162650952Y-136891961D02*
X162746190Y-136987200D01*
X162746190Y-136987200D02*
X162889047Y-137034819D01*
X162889047Y-137034819D02*
X162984285Y-137034819D01*
X161650952Y-136034819D02*
X162127142Y-136034819D01*
X162127142Y-136034819D02*
X162174761Y-136511009D01*
X162174761Y-136511009D02*
X162127142Y-136463390D01*
X162127142Y-136463390D02*
X162031904Y-136415771D01*
X162031904Y-136415771D02*
X161793809Y-136415771D01*
X161793809Y-136415771D02*
X161698571Y-136463390D01*
X161698571Y-136463390D02*
X161650952Y-136511009D01*
X161650952Y-136511009D02*
X161603333Y-136606247D01*
X161603333Y-136606247D02*
X161603333Y-136844342D01*
X161603333Y-136844342D02*
X161650952Y-136939580D01*
X161650952Y-136939580D02*
X161698571Y-136987200D01*
X161698571Y-136987200D02*
X161793809Y-137034819D01*
X161793809Y-137034819D02*
X162031904Y-137034819D01*
X162031904Y-137034819D02*
X162127142Y-136987200D01*
X162127142Y-136987200D02*
X162174761Y-136939580D01*
X100724819Y-96306666D02*
X101439104Y-96306666D01*
X101439104Y-96306666D02*
X101581961Y-96259047D01*
X101581961Y-96259047D02*
X101677200Y-96163809D01*
X101677200Y-96163809D02*
X101724819Y-96020952D01*
X101724819Y-96020952D02*
X101724819Y-95925714D01*
X101058152Y-97211428D02*
X101724819Y-97211428D01*
X100677200Y-96973333D02*
X101391485Y-96735238D01*
X101391485Y-96735238D02*
X101391485Y-97354285D01*
X114438904Y-87628519D02*
X114438904Y-88438042D01*
X114438904Y-88438042D02*
X114391285Y-88533280D01*
X114391285Y-88533280D02*
X114343666Y-88580900D01*
X114343666Y-88580900D02*
X114248428Y-88628519D01*
X114248428Y-88628519D02*
X114057952Y-88628519D01*
X114057952Y-88628519D02*
X113962714Y-88580900D01*
X113962714Y-88580900D02*
X113915095Y-88533280D01*
X113915095Y-88533280D02*
X113867476Y-88438042D01*
X113867476Y-88438042D02*
X113867476Y-87628519D01*
X113438904Y-87723757D02*
X113391285Y-87676138D01*
X113391285Y-87676138D02*
X113296047Y-87628519D01*
X113296047Y-87628519D02*
X113057952Y-87628519D01*
X113057952Y-87628519D02*
X112962714Y-87676138D01*
X112962714Y-87676138D02*
X112915095Y-87723757D01*
X112915095Y-87723757D02*
X112867476Y-87818995D01*
X112867476Y-87818995D02*
X112867476Y-87914233D01*
X112867476Y-87914233D02*
X112915095Y-88057090D01*
X112915095Y-88057090D02*
X113486523Y-88628519D01*
X113486523Y-88628519D02*
X112867476Y-88628519D01*
D10*
X117288570Y-60068357D02*
X117240951Y-60020738D01*
X117240951Y-60020738D02*
X117145713Y-59973119D01*
X117145713Y-59973119D02*
X116907618Y-59973119D01*
X116907618Y-59973119D02*
X116812380Y-60020738D01*
X116812380Y-60020738D02*
X116764761Y-60068357D01*
X116764761Y-60068357D02*
X116717142Y-60163595D01*
X116717142Y-60163595D02*
X116717142Y-60258833D01*
X116717142Y-60258833D02*
X116764761Y-60401690D01*
X116764761Y-60401690D02*
X117336189Y-60973119D01*
X117336189Y-60973119D02*
X116717142Y-60973119D01*
X115812380Y-59973119D02*
X116288570Y-59973119D01*
X116288570Y-59973119D02*
X116336189Y-60449309D01*
X116336189Y-60449309D02*
X116288570Y-60401690D01*
X116288570Y-60401690D02*
X116193332Y-60354071D01*
X116193332Y-60354071D02*
X115955237Y-60354071D01*
X115955237Y-60354071D02*
X115859999Y-60401690D01*
X115859999Y-60401690D02*
X115812380Y-60449309D01*
X115812380Y-60449309D02*
X115764761Y-60544547D01*
X115764761Y-60544547D02*
X115764761Y-60782642D01*
X115764761Y-60782642D02*
X115812380Y-60877880D01*
X115812380Y-60877880D02*
X115859999Y-60925500D01*
X115859999Y-60925500D02*
X115955237Y-60973119D01*
X115955237Y-60973119D02*
X116193332Y-60973119D01*
X116193332Y-60973119D02*
X116288570Y-60925500D01*
X116288570Y-60925500D02*
X116336189Y-60877880D01*
X115336189Y-60877880D02*
X115288570Y-60925500D01*
X115288570Y-60925500D02*
X115336189Y-60973119D01*
X115336189Y-60973119D02*
X115383808Y-60925500D01*
X115383808Y-60925500D02*
X115336189Y-60877880D01*
X115336189Y-60877880D02*
X115336189Y-60973119D01*
X114431428Y-59973119D02*
X114621904Y-59973119D01*
X114621904Y-59973119D02*
X114717142Y-60020738D01*
X114717142Y-60020738D02*
X114764761Y-60068357D01*
X114764761Y-60068357D02*
X114859999Y-60211214D01*
X114859999Y-60211214D02*
X114907618Y-60401690D01*
X114907618Y-60401690D02*
X114907618Y-60782642D01*
X114907618Y-60782642D02*
X114859999Y-60877880D01*
X114859999Y-60877880D02*
X114812380Y-60925500D01*
X114812380Y-60925500D02*
X114717142Y-60973119D01*
X114717142Y-60973119D02*
X114526666Y-60973119D01*
X114526666Y-60973119D02*
X114431428Y-60925500D01*
X114431428Y-60925500D02*
X114383809Y-60877880D01*
X114383809Y-60877880D02*
X114336190Y-60782642D01*
X114336190Y-60782642D02*
X114336190Y-60544547D01*
X114336190Y-60544547D02*
X114383809Y-60449309D01*
X114383809Y-60449309D02*
X114431428Y-60401690D01*
X114431428Y-60401690D02*
X114526666Y-60354071D01*
X114526666Y-60354071D02*
X114717142Y-60354071D01*
X114717142Y-60354071D02*
X114812380Y-60401690D01*
X114812380Y-60401690D02*
X114859999Y-60449309D01*
X114859999Y-60449309D02*
X114907618Y-60544547D01*
X113431428Y-59973119D02*
X113907618Y-59973119D01*
X113907618Y-59973119D02*
X113955237Y-60449309D01*
X113955237Y-60449309D02*
X113907618Y-60401690D01*
X113907618Y-60401690D02*
X113812380Y-60354071D01*
X113812380Y-60354071D02*
X113574285Y-60354071D01*
X113574285Y-60354071D02*
X113479047Y-60401690D01*
X113479047Y-60401690D02*
X113431428Y-60449309D01*
X113431428Y-60449309D02*
X113383809Y-60544547D01*
X113383809Y-60544547D02*
X113383809Y-60782642D01*
X113383809Y-60782642D02*
X113431428Y-60877880D01*
X113431428Y-60877880D02*
X113479047Y-60925500D01*
X113479047Y-60925500D02*
X113574285Y-60973119D01*
X113574285Y-60973119D02*
X113812380Y-60973119D01*
X113812380Y-60973119D02*
X113907618Y-60925500D01*
X113907618Y-60925500D02*
X113955237Y-60877880D01*
X112526666Y-60306452D02*
X112526666Y-60973119D01*
X112764761Y-59925500D02*
X113002856Y-60639785D01*
X113002856Y-60639785D02*
X112383809Y-60639785D01*
D13*
X151439819Y-89371666D02*
X152154104Y-89371666D01*
X152154104Y-89371666D02*
X152296961Y-89324047D01*
X152296961Y-89324047D02*
X152392200Y-89228809D01*
X152392200Y-89228809D02*
X152439819Y-89085952D01*
X152439819Y-89085952D02*
X152439819Y-88990714D01*
X151439819Y-89752619D02*
X151439819Y-90371666D01*
X151439819Y-90371666D02*
X151820771Y-90038333D01*
X151820771Y-90038333D02*
X151820771Y-90181190D01*
X151820771Y-90181190D02*
X151868390Y-90276428D01*
X151868390Y-90276428D02*
X151916009Y-90324047D01*
X151916009Y-90324047D02*
X152011247Y-90371666D01*
X152011247Y-90371666D02*
X152249342Y-90371666D01*
X152249342Y-90371666D02*
X152344580Y-90324047D01*
X152344580Y-90324047D02*
X152392200Y-90276428D01*
X152392200Y-90276428D02*
X152439819Y-90181190D01*
X152439819Y-90181190D02*
X152439819Y-89895476D01*
X152439819Y-89895476D02*
X152392200Y-89800238D01*
X152392200Y-89800238D02*
X152344580Y-89752619D01*
D14*
%TO.C,J5*%
X160890000Y-115040000D02*
X163650000Y-115040000D01*
X160890000Y-132930000D02*
X160890000Y-115040000D01*
X160890000Y-132930000D02*
X163650000Y-132930000D01*
X160890000Y-134200000D02*
X160890000Y-135580000D01*
X160890000Y-135580000D02*
X162270000Y-135580000D01*
X163650000Y-132930000D02*
X163650000Y-115040000D01*
%TO.C,J4*%
X89550000Y-97970000D02*
X89550000Y-95310000D01*
X97230000Y-95310000D02*
X89550000Y-95310000D01*
X97230000Y-97970000D02*
X89550000Y-97970000D01*
X97230000Y-97970000D02*
X97230000Y-95310000D01*
X99830000Y-95310000D02*
X98500000Y-95310000D01*
X99830000Y-96640000D02*
X99830000Y-95310000D01*
D15*
%TO.C,U2*%
X102033000Y-70673700D02*
X102033000Y-104373700D01*
D10*
X102033000Y-104373700D02*
X104537000Y-104373700D01*
D15*
X102033000Y-104373700D02*
X127687000Y-104373700D01*
X127687000Y-70673700D02*
X102033000Y-70673700D01*
D10*
X127687000Y-104373700D02*
X125187000Y-104373700D01*
D15*
X127687000Y-104373700D02*
X127687000Y-70419700D01*
D11*
X110007000Y-104923700D02*
G75*
G02*
X109807000Y-104923700I-100000J0D01*
G01*
X109807000Y-104923700D02*
G75*
G02*
X110007000Y-104923700I100000J0D01*
G01*
D10*
X117288570Y-60068357D02*
X117240951Y-60020738D01*
X117240951Y-60020738D02*
X117145713Y-59973119D01*
X117145713Y-59973119D02*
X116907618Y-59973119D01*
X116907618Y-59973119D02*
X116812380Y-60020738D01*
X116812380Y-60020738D02*
X116764761Y-60068357D01*
X116764761Y-60068357D02*
X116717142Y-60163595D01*
X116717142Y-60163595D02*
X116717142Y-60258833D01*
X116717142Y-60258833D02*
X116764761Y-60401690D01*
X116764761Y-60401690D02*
X117336189Y-60973119D01*
X117336189Y-60973119D02*
X116717142Y-60973119D01*
X115812380Y-59973119D02*
X116288570Y-59973119D01*
X116288570Y-59973119D02*
X116336189Y-60449309D01*
X116336189Y-60449309D02*
X116288570Y-60401690D01*
X116288570Y-60401690D02*
X116193332Y-60354071D01*
X116193332Y-60354071D02*
X115955237Y-60354071D01*
X115955237Y-60354071D02*
X115859999Y-60401690D01*
X115859999Y-60401690D02*
X115812380Y-60449309D01*
X115812380Y-60449309D02*
X115764761Y-60544547D01*
X115764761Y-60544547D02*
X115764761Y-60782642D01*
X115764761Y-60782642D02*
X115812380Y-60877880D01*
X115812380Y-60877880D02*
X115859999Y-60925500D01*
X115859999Y-60925500D02*
X115955237Y-60973119D01*
X115955237Y-60973119D02*
X116193332Y-60973119D01*
X116193332Y-60973119D02*
X116288570Y-60925500D01*
X116288570Y-60925500D02*
X116336189Y-60877880D01*
X115336189Y-60877880D02*
X115288570Y-60925500D01*
X115288570Y-60925500D02*
X115336189Y-60973119D01*
X115336189Y-60973119D02*
X115383808Y-60925500D01*
X115383808Y-60925500D02*
X115336189Y-60877880D01*
X115336189Y-60877880D02*
X115336189Y-60973119D01*
X114431428Y-59973119D02*
X114621904Y-59973119D01*
X114621904Y-59973119D02*
X114717142Y-60020738D01*
X114717142Y-60020738D02*
X114764761Y-60068357D01*
X114764761Y-60068357D02*
X114859999Y-60211214D01*
X114859999Y-60211214D02*
X114907618Y-60401690D01*
X114907618Y-60401690D02*
X114907618Y-60782642D01*
X114907618Y-60782642D02*
X114859999Y-60877880D01*
X114859999Y-60877880D02*
X114812380Y-60925500D01*
X114812380Y-60925500D02*
X114717142Y-60973119D01*
X114717142Y-60973119D02*
X114526666Y-60973119D01*
X114526666Y-60973119D02*
X114431428Y-60925500D01*
X114431428Y-60925500D02*
X114383809Y-60877880D01*
X114383809Y-60877880D02*
X114336190Y-60782642D01*
X114336190Y-60782642D02*
X114336190Y-60544547D01*
X114336190Y-60544547D02*
X114383809Y-60449309D01*
X114383809Y-60449309D02*
X114431428Y-60401690D01*
X114431428Y-60401690D02*
X114526666Y-60354071D01*
X114526666Y-60354071D02*
X114717142Y-60354071D01*
X114717142Y-60354071D02*
X114812380Y-60401690D01*
X114812380Y-60401690D02*
X114859999Y-60449309D01*
X114859999Y-60449309D02*
X114907618Y-60544547D01*
X113431428Y-59973119D02*
X113907618Y-59973119D01*
X113907618Y-59973119D02*
X113955237Y-60449309D01*
X113955237Y-60449309D02*
X113907618Y-60401690D01*
X113907618Y-60401690D02*
X113812380Y-60354071D01*
X113812380Y-60354071D02*
X113574285Y-60354071D01*
X113574285Y-60354071D02*
X113479047Y-60401690D01*
X113479047Y-60401690D02*
X113431428Y-60449309D01*
X113431428Y-60449309D02*
X113383809Y-60544547D01*
X113383809Y-60544547D02*
X113383809Y-60782642D01*
X113383809Y-60782642D02*
X113431428Y-60877880D01*
X113431428Y-60877880D02*
X113479047Y-60925500D01*
X113479047Y-60925500D02*
X113574285Y-60973119D01*
X113574285Y-60973119D02*
X113812380Y-60973119D01*
X113812380Y-60973119D02*
X113907618Y-60925500D01*
X113907618Y-60925500D02*
X113955237Y-60877880D01*
X112526666Y-60306452D02*
X112526666Y-60973119D01*
X112764761Y-59925500D02*
X113002856Y-60639785D01*
X113002856Y-60639785D02*
X112383809Y-60639785D01*
X102033000Y-70173700D02*
X102033000Y-61029280D01*
X127687000Y-61029280D02*
X127687000Y-72173700D01*
X102033000Y-61615700D02*
X127687000Y-61615700D01*
X102033000Y-61615700D02*
X103159504Y-61029279D01*
X102033000Y-61615700D02*
X103159504Y-62202121D01*
X127687000Y-61615700D02*
X126560496Y-62202121D01*
X127687000Y-61615700D02*
X126560496Y-61029279D01*
D14*
%TO.C,J3*%
X135185000Y-91035000D02*
X135185000Y-88375000D01*
X147945000Y-88375000D02*
X135185000Y-88375000D01*
X147945000Y-91035000D02*
X135185000Y-91035000D01*
X147945000Y-91035000D02*
X147945000Y-88375000D01*
X150545000Y-88375000D02*
X149215000Y-88375000D01*
X150545000Y-89705000D02*
X150545000Y-88375000D01*
%TD*%
M02*
