%TF.GenerationSoftware,KiCad,Pcbnew,9.0.1*%
%TF.CreationDate,2025-10-16T23:05:20+05:30*%
%TF.ProjectId,CANSAT,43414e53-4154-42e6-9b69-6361645f7063,rev?*%
%TF.SameCoordinates,Original*%
%TF.FileFunction,Soldermask,Top*%
%TF.FilePolarity,Negative*%
%FSLAX46Y46*%
G04 Gerber Fmt 4.6, Leading zero omitted, Abs format (unit mm)*
G04 Created by KiCad (PCBNEW 9.0.1) date 2025-10-16 23:05:20*
%MOMM*%
%LPD*%
G01*
G04 APERTURE LIST*
G04 Aperture macros list*
%AMRoundRect*
0 Rectangle with rounded corners*
0 $1 Rounding radius*
0 $2 $3 $4 $5 $6 $7 $8 $9 X,Y pos of 4 corners*
0 Add a 4 corners polygon primitive as box body*
4,1,4,$2,$3,$4,$5,$6,$7,$8,$9,$2,$3,0*
0 Add four circle primitives for the rounded corners*
1,1,$1+$1,$2,$3*
1,1,$1+$1,$4,$5*
1,1,$1+$1,$6,$7*
1,1,$1+$1,$8,$9*
0 Add four rect primitives between the rounded corners*
20,1,$1+$1,$2,$3,$4,$5,0*
20,1,$1+$1,$4,$5,$6,$7,0*
20,1,$1+$1,$6,$7,$8,$9,0*
20,1,$1+$1,$8,$9,$2,$3,0*%
%AMFreePoly0*
4,1,6,1.000000,0.000000,0.500000,-0.750000,-0.500000,-0.750000,-0.500000,0.750000,0.500000,0.750000,1.000000,0.000000,1.000000,0.000000,$1*%
%AMFreePoly1*
4,1,6,0.500000,-0.750000,-0.650000,-0.750000,-0.150000,0.000000,-0.650000,0.750000,0.500000,0.750000,0.500000,-0.750000,0.500000,-0.750000,$1*%
G04 Aperture macros list end*
%ADD10FreePoly0,0.000000*%
%ADD11FreePoly1,0.000000*%
%ADD12R,1.700000X1.700000*%
%ADD13C,1.700000*%
%ADD14C,3.000000*%
%ADD15RoundRect,0.102000X0.754000X-0.754000X0.754000X0.754000X-0.754000X0.754000X-0.754000X-0.754000X0*%
%ADD16C,1.712000*%
%ADD17RoundRect,0.375000X-0.625000X-0.375000X0.625000X-0.375000X0.625000X0.375000X-0.625000X0.375000X0*%
%ADD18RoundRect,0.500000X-0.500000X-1.400000X0.500000X-1.400000X0.500000X1.400000X-0.500000X1.400000X0*%
%ADD19FreePoly0,180.000000*%
%ADD20FreePoly1,180.000000*%
%ADD21RoundRect,0.102000X1.000000X1.000000X-1.000000X1.000000X-1.000000X-1.000000X1.000000X-1.000000X0*%
%ADD22C,2.204000*%
%ADD23RoundRect,0.102000X-0.700000X-0.700000X0.700000X-0.700000X0.700000X0.700000X-0.700000X0.700000X0*%
%ADD24C,1.604000*%
%ADD25C,2.400000*%
%ADD26R,4.000000X4.000000*%
%ADD27RoundRect,0.102000X-0.754000X-0.754000X0.754000X-0.754000X0.754000X0.754000X-0.754000X0.754000X0*%
G04 APERTURE END LIST*
%TO.C,JP3*%
G36*
X127365000Y-49940000D02*
G01*
X129815000Y-49940000D01*
X129815000Y-51440000D01*
X127365000Y-51440000D01*
X127365000Y-49940000D01*
G37*
%TO.C,JP1*%
G36*
X129705000Y-43780000D02*
G01*
X127255000Y-43780000D01*
X127255000Y-42280000D01*
X129705000Y-42280000D01*
X129705000Y-43780000D01*
G37*
%TO.C,JP5*%
G36*
X127365000Y-57040000D02*
G01*
X129815000Y-57040000D01*
X129815000Y-58540000D01*
X127365000Y-58540000D01*
X127365000Y-57040000D01*
G37*
%TO.C,JP6*%
G36*
X127365000Y-60590000D02*
G01*
X129815000Y-60590000D01*
X129815000Y-62090000D01*
X127365000Y-62090000D01*
X127365000Y-60590000D01*
G37*
%TO.C,JP2*%
G36*
X129785000Y-47620000D02*
G01*
X127335000Y-47620000D01*
X127335000Y-46120000D01*
X129785000Y-46120000D01*
X129785000Y-47620000D01*
G37*
%TO.C,JP4*%
G36*
X127365000Y-53490000D02*
G01*
X129815000Y-53490000D01*
X129815000Y-54990000D01*
X127365000Y-54990000D01*
X127365000Y-53490000D01*
G37*
%TD*%
D10*
%TO.C,JP3*%
X127865000Y-50690000D03*
D11*
X129315000Y-50690000D03*
%TD*%
D12*
%TO.C,J10*%
X100678900Y-109276100D03*
D13*
X100678900Y-111816100D03*
X100678900Y-114356100D03*
X100678900Y-116896100D03*
X100678900Y-119436100D03*
X100678900Y-121976100D03*
%TD*%
D14*
%TO.C,DS1*%
X161077500Y-89600000D03*
X190777500Y-89600000D03*
X161077500Y-58100000D03*
X190777500Y-58100000D03*
D15*
X160377500Y-77660000D03*
D16*
X160377500Y-75120000D03*
X160377500Y-72580000D03*
X160377500Y-70040000D03*
%TD*%
D12*
%TO.C,J2*%
X110100000Y-109880000D03*
D13*
X112640000Y-109880000D03*
X115180000Y-109880000D03*
X117720000Y-109880000D03*
X120260000Y-109880000D03*
X122800000Y-109880000D03*
%TD*%
D17*
%TO.C,U5*%
X181760000Y-97870000D03*
X181760000Y-100170000D03*
D18*
X188060000Y-100170000D03*
D17*
X181760000Y-102470000D03*
%TD*%
D19*
%TO.C,JP1*%
X129205000Y-43030000D03*
D20*
X127755000Y-43030000D03*
%TD*%
D14*
%TO.C,U1*%
X155460000Y-144985000D03*
X155460000Y-98035000D03*
X130950000Y-144985000D03*
X130950000Y-98035000D03*
D21*
X155880000Y-137025000D03*
D22*
X155880000Y-134485000D03*
X155880000Y-131945000D03*
X155880000Y-129405000D03*
X155880000Y-126865000D03*
X155880000Y-124325000D03*
X155880000Y-121785000D03*
X155880000Y-119245000D03*
X155880000Y-116705000D03*
X155880000Y-114165000D03*
X155880000Y-111625000D03*
X155880000Y-109085000D03*
X155880000Y-106545000D03*
X155880000Y-104005000D03*
X155880000Y-101465000D03*
X130480000Y-101465000D03*
X130480000Y-104005000D03*
X130480000Y-106545000D03*
X130480000Y-109085000D03*
X130480000Y-111625000D03*
X130480000Y-114165000D03*
X130480000Y-116705000D03*
X130480000Y-119245000D03*
X130480000Y-121785000D03*
X130480000Y-124325000D03*
X130480000Y-126865000D03*
X130480000Y-129405000D03*
X130480000Y-131945000D03*
X130480000Y-134485000D03*
X130480000Y-137025000D03*
%TD*%
D12*
%TO.C,J8*%
X129940000Y-72490000D03*
D13*
X129940000Y-75030000D03*
X129940000Y-77570000D03*
X129940000Y-80110000D03*
X129940000Y-82650000D03*
X129940000Y-85190000D03*
X129940000Y-87730000D03*
X129940000Y-90270000D03*
%TD*%
D12*
%TO.C,J1*%
X110100000Y-132720000D03*
D13*
X112640000Y-132720000D03*
X115180000Y-132720000D03*
X117720000Y-132720000D03*
X120260000Y-132720000D03*
X122800000Y-132720000D03*
%TD*%
D23*
%TO.C,U4*%
X134940000Y-42820000D03*
D24*
X134940000Y-44820000D03*
X134940000Y-46820000D03*
X134940000Y-48820000D03*
X134940000Y-50820000D03*
X134940000Y-52820000D03*
X134940000Y-54820000D03*
X134940000Y-56820000D03*
X134940000Y-58820000D03*
X134940000Y-60820000D03*
X156940000Y-60820000D03*
X156940000Y-58820000D03*
X156940000Y-56820000D03*
X156940000Y-54820000D03*
X156940000Y-52820000D03*
X156940000Y-50820000D03*
X156940000Y-48820000D03*
X156940000Y-46820000D03*
X156940000Y-44820000D03*
X156940000Y-42820000D03*
%TD*%
D12*
%TO.C,J11*%
X97850000Y-62510000D03*
D13*
X97850000Y-65050000D03*
X97850000Y-67590000D03*
X97850000Y-70130000D03*
X97850000Y-72670000D03*
X97850000Y-75210000D03*
X97850000Y-77750000D03*
X97850000Y-80290000D03*
%TD*%
D12*
%TO.C,J6*%
X161100000Y-62950000D03*
D13*
X163640000Y-62950000D03*
X166180000Y-62950000D03*
X168720000Y-62950000D03*
X171260000Y-62950000D03*
X173800000Y-62950000D03*
%TD*%
D10*
%TO.C,JP5*%
X127865000Y-57790000D03*
D11*
X129315000Y-57790000D03*
%TD*%
D10*
%TO.C,JP6*%
X127865000Y-61340000D03*
D11*
X129315000Y-61340000D03*
%TD*%
D25*
%TO.C,R1*%
X160900000Y-104140000D03*
X176140000Y-104140000D03*
%TD*%
D26*
%TO.C,TP1*%
X195140000Y-103030000D03*
%TD*%
D19*
%TO.C,JP2*%
X129285000Y-46870000D03*
D20*
X127835000Y-46870000D03*
%TD*%
D10*
%TO.C,JP4*%
X127865000Y-54240000D03*
D11*
X129315000Y-54240000D03*
%TD*%
D17*
%TO.C,U3*%
X181930000Y-107800000D03*
X181930000Y-110100000D03*
D18*
X188230000Y-110100000D03*
D17*
X181930000Y-112400000D03*
%TD*%
D25*
%TO.C,R2*%
X160850000Y-99350000D03*
X176090000Y-99350000D03*
%TD*%
D12*
%TO.C,J9*%
X155550000Y-72490000D03*
D13*
X155550000Y-75030000D03*
X155550000Y-77570000D03*
X155550000Y-80110000D03*
X155550000Y-82650000D03*
X155550000Y-85190000D03*
X155550000Y-87730000D03*
X155550000Y-90270000D03*
%TD*%
D12*
%TO.C,J7*%
X111360000Y-97470000D03*
D13*
X113900000Y-97470000D03*
X116440000Y-97470000D03*
X118980000Y-97470000D03*
%TD*%
D26*
%TO.C,TP2*%
X195140000Y-109080000D03*
%TD*%
D12*
%TO.C,J5*%
X162270000Y-134200000D03*
D13*
X162270000Y-131660000D03*
X162270000Y-129120000D03*
X162270000Y-126580000D03*
X162270000Y-124040000D03*
X162270000Y-121500000D03*
X162270000Y-118960000D03*
X162270000Y-116420000D03*
%TD*%
D12*
%TO.C,J4*%
X98500000Y-96640000D03*
D13*
X95960000Y-96640000D03*
X93420000Y-96640000D03*
X90880000Y-96640000D03*
%TD*%
D14*
%TO.C,U2*%
X104537000Y-101873700D03*
X125187000Y-101863700D03*
D27*
X111417000Y-103073700D03*
D16*
X113957000Y-103073700D03*
X116497000Y-103073700D03*
X119037000Y-103073700D03*
%TD*%
D12*
%TO.C,J3*%
X149215000Y-89705000D03*
D13*
X146675000Y-89705000D03*
X144135000Y-89705000D03*
X141595000Y-89705000D03*
X139055000Y-89705000D03*
X136515000Y-89705000D03*
%TD*%
M02*
