%TF.GenerationSoftware,KiCad,Pcbnew,9.0.1*%
%TF.CreationDate,2025-10-16T23:05:19+05:30*%
%TF.ProjectId,CANSAT,43414e53-4154-42e6-9b69-6361645f7063,rev?*%
%TF.SameCoordinates,Original*%
%TF.FileFunction,Legend,Top*%
%TF.FilePolarity,Positive*%
%FSLAX46Y46*%
G04 Gerber Fmt 4.6, Leading zero omitted, Abs format (unit mm)*
G04 Created by KiCad (PCBNEW 9.0.1) date 2025-10-16 23:05:19*
%MOMM*%
%LPD*%
G01*
G04 APERTURE LIST*
%ADD10C,0.100000*%
%ADD11C,0.300000*%
%ADD12C,0.150000*%
%ADD13C,0.120000*%
%ADD14C,0.127000*%
%ADD15C,0.200000*%
G04 APERTURE END LIST*
D10*
X103940000Y-59125000D02*
X125940000Y-59125000D01*
X125940000Y-100175000D01*
X103940000Y-100175000D01*
X103940000Y-59125000D01*
X159090000Y-40150000D02*
X175690000Y-40150000D01*
X175690000Y-65070000D01*
X159090000Y-65070000D01*
X159090000Y-40150000D01*
X105860000Y-105130000D02*
X127830000Y-105130000D01*
X127830000Y-136510000D01*
X105860000Y-136510000D01*
X105860000Y-105130000D01*
X134270000Y-71810000D02*
X151430000Y-71810000D01*
X151430000Y-91970000D01*
X134270000Y-91970000D01*
X134270000Y-71810000D01*
D11*
X111764510Y-77245828D02*
X111764510Y-75745828D01*
X111764510Y-75745828D02*
X112264510Y-76817257D01*
X112264510Y-76817257D02*
X112764510Y-75745828D01*
X112764510Y-75745828D02*
X112764510Y-77245828D01*
X114478796Y-77388685D02*
X114335939Y-77317257D01*
X114335939Y-77317257D02*
X114193082Y-77174400D01*
X114193082Y-77174400D02*
X113978796Y-76960114D01*
X113978796Y-76960114D02*
X113835939Y-76888685D01*
X113835939Y-76888685D02*
X113693082Y-76888685D01*
X113764511Y-77245828D02*
X113621654Y-77174400D01*
X113621654Y-77174400D02*
X113478796Y-77031542D01*
X113478796Y-77031542D02*
X113407368Y-76745828D01*
X113407368Y-76745828D02*
X113407368Y-76245828D01*
X113407368Y-76245828D02*
X113478796Y-75960114D01*
X113478796Y-75960114D02*
X113621654Y-75817257D01*
X113621654Y-75817257D02*
X113764511Y-75745828D01*
X113764511Y-75745828D02*
X114050225Y-75745828D01*
X114050225Y-75745828D02*
X114193082Y-75817257D01*
X114193082Y-75817257D02*
X114335939Y-75960114D01*
X114335939Y-75960114D02*
X114407368Y-76245828D01*
X114407368Y-76245828D02*
X114407368Y-76745828D01*
X114407368Y-76745828D02*
X114335939Y-77031542D01*
X114335939Y-77031542D02*
X114193082Y-77174400D01*
X114193082Y-77174400D02*
X114050225Y-77245828D01*
X114050225Y-77245828D02*
X113764511Y-77245828D01*
X115835940Y-77245828D02*
X114978797Y-77245828D01*
X115407368Y-77245828D02*
X115407368Y-75745828D01*
X115407368Y-75745828D02*
X115264511Y-75960114D01*
X115264511Y-75960114D02*
X115121654Y-76102971D01*
X115121654Y-76102971D02*
X114978797Y-76174400D01*
X116335939Y-75745828D02*
X117264511Y-75745828D01*
X117264511Y-75745828D02*
X116764511Y-76317257D01*
X116764511Y-76317257D02*
X116978796Y-76317257D01*
X116978796Y-76317257D02*
X117121654Y-76388685D01*
X117121654Y-76388685D02*
X117193082Y-76460114D01*
X117193082Y-76460114D02*
X117264511Y-76602971D01*
X117264511Y-76602971D02*
X117264511Y-76960114D01*
X117264511Y-76960114D02*
X117193082Y-77102971D01*
X117193082Y-77102971D02*
X117121654Y-77174400D01*
X117121654Y-77174400D02*
X116978796Y-77245828D01*
X116978796Y-77245828D02*
X116550225Y-77245828D01*
X116550225Y-77245828D02*
X116407368Y-77174400D01*
X116407368Y-77174400D02*
X116335939Y-77102971D01*
X118621653Y-75745828D02*
X117907367Y-75745828D01*
X117907367Y-75745828D02*
X117835939Y-76460114D01*
X117835939Y-76460114D02*
X117907367Y-76388685D01*
X117907367Y-76388685D02*
X118050225Y-76317257D01*
X118050225Y-76317257D02*
X118407367Y-76317257D01*
X118407367Y-76317257D02*
X118550225Y-76388685D01*
X118550225Y-76388685D02*
X118621653Y-76460114D01*
X118621653Y-76460114D02*
X118693082Y-76602971D01*
X118693082Y-76602971D02*
X118693082Y-76960114D01*
X118693082Y-76960114D02*
X118621653Y-77102971D01*
X118621653Y-77102971D02*
X118550225Y-77174400D01*
X118550225Y-77174400D02*
X118407367Y-77245828D01*
X118407367Y-77245828D02*
X118050225Y-77245828D01*
X118050225Y-77245828D02*
X117907367Y-77174400D01*
X117907367Y-77174400D02*
X117835939Y-77102971D01*
D10*
X116752419Y-121686115D02*
X115752419Y-121686115D01*
X116752419Y-121209925D02*
X115752419Y-121209925D01*
X115752419Y-121209925D02*
X116466704Y-120876592D01*
X116466704Y-120876592D02*
X115752419Y-120543259D01*
X115752419Y-120543259D02*
X116752419Y-120543259D01*
X115752419Y-120067068D02*
X116561942Y-120067068D01*
X116561942Y-120067068D02*
X116657180Y-120019449D01*
X116657180Y-120019449D02*
X116704800Y-119971830D01*
X116704800Y-119971830D02*
X116752419Y-119876592D01*
X116752419Y-119876592D02*
X116752419Y-119686116D01*
X116752419Y-119686116D02*
X116704800Y-119590878D01*
X116704800Y-119590878D02*
X116657180Y-119543259D01*
X116657180Y-119543259D02*
X116561942Y-119495640D01*
X116561942Y-119495640D02*
X115752419Y-119495640D01*
D12*
X127756666Y-48344819D02*
X127756666Y-49059104D01*
X127756666Y-49059104D02*
X127709047Y-49201961D01*
X127709047Y-49201961D02*
X127613809Y-49297200D01*
X127613809Y-49297200D02*
X127470952Y-49344819D01*
X127470952Y-49344819D02*
X127375714Y-49344819D01*
X128232857Y-49344819D02*
X128232857Y-48344819D01*
X128232857Y-48344819D02*
X128613809Y-48344819D01*
X128613809Y-48344819D02*
X128709047Y-48392438D01*
X128709047Y-48392438D02*
X128756666Y-48440057D01*
X128756666Y-48440057D02*
X128804285Y-48535295D01*
X128804285Y-48535295D02*
X128804285Y-48678152D01*
X128804285Y-48678152D02*
X128756666Y-48773390D01*
X128756666Y-48773390D02*
X128709047Y-48821009D01*
X128709047Y-48821009D02*
X128613809Y-48868628D01*
X128613809Y-48868628D02*
X128232857Y-48868628D01*
X129137619Y-48344819D02*
X129756666Y-48344819D01*
X129756666Y-48344819D02*
X129423333Y-48725771D01*
X129423333Y-48725771D02*
X129566190Y-48725771D01*
X129566190Y-48725771D02*
X129661428Y-48773390D01*
X129661428Y-48773390D02*
X129709047Y-48821009D01*
X129709047Y-48821009D02*
X129756666Y-48916247D01*
X129756666Y-48916247D02*
X129756666Y-49154342D01*
X129756666Y-49154342D02*
X129709047Y-49249580D01*
X129709047Y-49249580D02*
X129661428Y-49297200D01*
X129661428Y-49297200D02*
X129566190Y-49344819D01*
X129566190Y-49344819D02*
X129280476Y-49344819D01*
X129280476Y-49344819D02*
X129185238Y-49297200D01*
X129185238Y-49297200D02*
X129137619Y-49249580D01*
X99869376Y-105960919D02*
X99869376Y-106675204D01*
X99869376Y-106675204D02*
X99821757Y-106818061D01*
X99821757Y-106818061D02*
X99726519Y-106913300D01*
X99726519Y-106913300D02*
X99583662Y-106960919D01*
X99583662Y-106960919D02*
X99488424Y-106960919D01*
X100869376Y-106960919D02*
X100297948Y-106960919D01*
X100583662Y-106960919D02*
X100583662Y-105960919D01*
X100583662Y-105960919D02*
X100488424Y-106103776D01*
X100488424Y-106103776D02*
X100393186Y-106199014D01*
X100393186Y-106199014D02*
X100297948Y-106246633D01*
X101488424Y-105960919D02*
X101583662Y-105960919D01*
X101583662Y-105960919D02*
X101678900Y-106008538D01*
X101678900Y-106008538D02*
X101726519Y-106056157D01*
X101726519Y-106056157D02*
X101774138Y-106151395D01*
X101774138Y-106151395D02*
X101821757Y-106341871D01*
X101821757Y-106341871D02*
X101821757Y-106579966D01*
X101821757Y-106579966D02*
X101774138Y-106770442D01*
X101774138Y-106770442D02*
X101726519Y-106865680D01*
X101726519Y-106865680D02*
X101678900Y-106913300D01*
X101678900Y-106913300D02*
X101583662Y-106960919D01*
X101583662Y-106960919D02*
X101488424Y-106960919D01*
X101488424Y-106960919D02*
X101393186Y-106913300D01*
X101393186Y-106913300D02*
X101345567Y-106865680D01*
X101345567Y-106865680D02*
X101297948Y-106770442D01*
X101297948Y-106770442D02*
X101250329Y-106579966D01*
X101250329Y-106579966D02*
X101250329Y-106341871D01*
X101250329Y-106341871D02*
X101297948Y-106151395D01*
X101297948Y-106151395D02*
X101345567Y-106056157D01*
X101345567Y-106056157D02*
X101393186Y-106008538D01*
X101393186Y-106008538D02*
X101488424Y-105960919D01*
X158497319Y-89639285D02*
X157497319Y-89639285D01*
X157497319Y-89639285D02*
X157497319Y-89401190D01*
X157497319Y-89401190D02*
X157544938Y-89258333D01*
X157544938Y-89258333D02*
X157640176Y-89163095D01*
X157640176Y-89163095D02*
X157735414Y-89115476D01*
X157735414Y-89115476D02*
X157925890Y-89067857D01*
X157925890Y-89067857D02*
X158068747Y-89067857D01*
X158068747Y-89067857D02*
X158259223Y-89115476D01*
X158259223Y-89115476D02*
X158354461Y-89163095D01*
X158354461Y-89163095D02*
X158449700Y-89258333D01*
X158449700Y-89258333D02*
X158497319Y-89401190D01*
X158497319Y-89401190D02*
X158497319Y-89639285D01*
X158449700Y-88686904D02*
X158497319Y-88544047D01*
X158497319Y-88544047D02*
X158497319Y-88305952D01*
X158497319Y-88305952D02*
X158449700Y-88210714D01*
X158449700Y-88210714D02*
X158402080Y-88163095D01*
X158402080Y-88163095D02*
X158306842Y-88115476D01*
X158306842Y-88115476D02*
X158211604Y-88115476D01*
X158211604Y-88115476D02*
X158116366Y-88163095D01*
X158116366Y-88163095D02*
X158068747Y-88210714D01*
X158068747Y-88210714D02*
X158021128Y-88305952D01*
X158021128Y-88305952D02*
X157973509Y-88496428D01*
X157973509Y-88496428D02*
X157925890Y-88591666D01*
X157925890Y-88591666D02*
X157878271Y-88639285D01*
X157878271Y-88639285D02*
X157783033Y-88686904D01*
X157783033Y-88686904D02*
X157687795Y-88686904D01*
X157687795Y-88686904D02*
X157592557Y-88639285D01*
X157592557Y-88639285D02*
X157544938Y-88591666D01*
X157544938Y-88591666D02*
X157497319Y-88496428D01*
X157497319Y-88496428D02*
X157497319Y-88258333D01*
X157497319Y-88258333D02*
X157544938Y-88115476D01*
X158497319Y-87163095D02*
X158497319Y-87734523D01*
X158497319Y-87448809D02*
X157497319Y-87448809D01*
X157497319Y-87448809D02*
X157640176Y-87544047D01*
X157640176Y-87544047D02*
X157735414Y-87639285D01*
X157735414Y-87639285D02*
X157783033Y-87734523D01*
X106784819Y-110213333D02*
X107499104Y-110213333D01*
X107499104Y-110213333D02*
X107641961Y-110260952D01*
X107641961Y-110260952D02*
X107737200Y-110356190D01*
X107737200Y-110356190D02*
X107784819Y-110499047D01*
X107784819Y-110499047D02*
X107784819Y-110594285D01*
X106880057Y-109784761D02*
X106832438Y-109737142D01*
X106832438Y-109737142D02*
X106784819Y-109641904D01*
X106784819Y-109641904D02*
X106784819Y-109403809D01*
X106784819Y-109403809D02*
X106832438Y-109308571D01*
X106832438Y-109308571D02*
X106880057Y-109260952D01*
X106880057Y-109260952D02*
X106975295Y-109213333D01*
X106975295Y-109213333D02*
X107070533Y-109213333D01*
X107070533Y-109213333D02*
X107213390Y-109260952D01*
X107213390Y-109260952D02*
X107784819Y-109832380D01*
X107784819Y-109832380D02*
X107784819Y-109213333D01*
X184148095Y-95124819D02*
X184148095Y-95934342D01*
X184148095Y-95934342D02*
X184195714Y-96029580D01*
X184195714Y-96029580D02*
X184243333Y-96077200D01*
X184243333Y-96077200D02*
X184338571Y-96124819D01*
X184338571Y-96124819D02*
X184529047Y-96124819D01*
X184529047Y-96124819D02*
X184624285Y-96077200D01*
X184624285Y-96077200D02*
X184671904Y-96029580D01*
X184671904Y-96029580D02*
X184719523Y-95934342D01*
X184719523Y-95934342D02*
X184719523Y-95124819D01*
X185671904Y-95124819D02*
X185195714Y-95124819D01*
X185195714Y-95124819D02*
X185148095Y-95601009D01*
X185148095Y-95601009D02*
X185195714Y-95553390D01*
X185195714Y-95553390D02*
X185290952Y-95505771D01*
X185290952Y-95505771D02*
X185529047Y-95505771D01*
X185529047Y-95505771D02*
X185624285Y-95553390D01*
X185624285Y-95553390D02*
X185671904Y-95601009D01*
X185671904Y-95601009D02*
X185719523Y-95696247D01*
X185719523Y-95696247D02*
X185719523Y-95934342D01*
X185719523Y-95934342D02*
X185671904Y-96029580D01*
X185671904Y-96029580D02*
X185624285Y-96077200D01*
X185624285Y-96077200D02*
X185529047Y-96124819D01*
X185529047Y-96124819D02*
X185290952Y-96124819D01*
X185290952Y-96124819D02*
X185195714Y-96077200D01*
X185195714Y-96077200D02*
X185148095Y-96029580D01*
X127686666Y-40654819D02*
X127686666Y-41369104D01*
X127686666Y-41369104D02*
X127639047Y-41511961D01*
X127639047Y-41511961D02*
X127543809Y-41607200D01*
X127543809Y-41607200D02*
X127400952Y-41654819D01*
X127400952Y-41654819D02*
X127305714Y-41654819D01*
X128162857Y-41654819D02*
X128162857Y-40654819D01*
X128162857Y-40654819D02*
X128543809Y-40654819D01*
X128543809Y-40654819D02*
X128639047Y-40702438D01*
X128639047Y-40702438D02*
X128686666Y-40750057D01*
X128686666Y-40750057D02*
X128734285Y-40845295D01*
X128734285Y-40845295D02*
X128734285Y-40988152D01*
X128734285Y-40988152D02*
X128686666Y-41083390D01*
X128686666Y-41083390D02*
X128639047Y-41131009D01*
X128639047Y-41131009D02*
X128543809Y-41178628D01*
X128543809Y-41178628D02*
X128162857Y-41178628D01*
X129686666Y-41654819D02*
X129115238Y-41654819D01*
X129400952Y-41654819D02*
X129400952Y-40654819D01*
X129400952Y-40654819D02*
X129305714Y-40797676D01*
X129305714Y-40797676D02*
X129210476Y-40892914D01*
X129210476Y-40892914D02*
X129115238Y-40940533D01*
X153773095Y-148324819D02*
X153773095Y-149134342D01*
X153773095Y-149134342D02*
X153820714Y-149229580D01*
X153820714Y-149229580D02*
X153868333Y-149277200D01*
X153868333Y-149277200D02*
X153963571Y-149324819D01*
X153963571Y-149324819D02*
X154154047Y-149324819D01*
X154154047Y-149324819D02*
X154249285Y-149277200D01*
X154249285Y-149277200D02*
X154296904Y-149229580D01*
X154296904Y-149229580D02*
X154344523Y-149134342D01*
X154344523Y-149134342D02*
X154344523Y-148324819D01*
X155344523Y-149324819D02*
X154773095Y-149324819D01*
X155058809Y-149324819D02*
X155058809Y-148324819D01*
X155058809Y-148324819D02*
X154963571Y-148467676D01*
X154963571Y-148467676D02*
X154868333Y-148562914D01*
X154868333Y-148562914D02*
X154773095Y-148610533D01*
X129606666Y-69564819D02*
X129606666Y-70279104D01*
X129606666Y-70279104D02*
X129559047Y-70421961D01*
X129559047Y-70421961D02*
X129463809Y-70517200D01*
X129463809Y-70517200D02*
X129320952Y-70564819D01*
X129320952Y-70564819D02*
X129225714Y-70564819D01*
X130225714Y-69993390D02*
X130130476Y-69945771D01*
X130130476Y-69945771D02*
X130082857Y-69898152D01*
X130082857Y-69898152D02*
X130035238Y-69802914D01*
X130035238Y-69802914D02*
X130035238Y-69755295D01*
X130035238Y-69755295D02*
X130082857Y-69660057D01*
X130082857Y-69660057D02*
X130130476Y-69612438D01*
X130130476Y-69612438D02*
X130225714Y-69564819D01*
X130225714Y-69564819D02*
X130416190Y-69564819D01*
X130416190Y-69564819D02*
X130511428Y-69612438D01*
X130511428Y-69612438D02*
X130559047Y-69660057D01*
X130559047Y-69660057D02*
X130606666Y-69755295D01*
X130606666Y-69755295D02*
X130606666Y-69802914D01*
X130606666Y-69802914D02*
X130559047Y-69898152D01*
X130559047Y-69898152D02*
X130511428Y-69945771D01*
X130511428Y-69945771D02*
X130416190Y-69993390D01*
X130416190Y-69993390D02*
X130225714Y-69993390D01*
X130225714Y-69993390D02*
X130130476Y-70041009D01*
X130130476Y-70041009D02*
X130082857Y-70088628D01*
X130082857Y-70088628D02*
X130035238Y-70183866D01*
X130035238Y-70183866D02*
X130035238Y-70374342D01*
X130035238Y-70374342D02*
X130082857Y-70469580D01*
X130082857Y-70469580D02*
X130130476Y-70517200D01*
X130130476Y-70517200D02*
X130225714Y-70564819D01*
X130225714Y-70564819D02*
X130416190Y-70564819D01*
X130416190Y-70564819D02*
X130511428Y-70517200D01*
X130511428Y-70517200D02*
X130559047Y-70469580D01*
X130559047Y-70469580D02*
X130606666Y-70374342D01*
X130606666Y-70374342D02*
X130606666Y-70183866D01*
X130606666Y-70183866D02*
X130559047Y-70088628D01*
X130559047Y-70088628D02*
X130511428Y-70041009D01*
X130511428Y-70041009D02*
X130416190Y-69993390D01*
X106784819Y-133053333D02*
X107499104Y-133053333D01*
X107499104Y-133053333D02*
X107641961Y-133100952D01*
X107641961Y-133100952D02*
X107737200Y-133196190D01*
X107737200Y-133196190D02*
X107784819Y-133339047D01*
X107784819Y-133339047D02*
X107784819Y-133434285D01*
X107784819Y-132053333D02*
X107784819Y-132624761D01*
X107784819Y-132339047D02*
X106784819Y-132339047D01*
X106784819Y-132339047D02*
X106927676Y-132434285D01*
X106927676Y-132434285D02*
X107022914Y-132529523D01*
X107022914Y-132529523D02*
X107070533Y-132624761D01*
X131512070Y-60368781D02*
X131512070Y-61180057D01*
X131512070Y-61180057D02*
X131559792Y-61275501D01*
X131559792Y-61275501D02*
X131607515Y-61323224D01*
X131607515Y-61323224D02*
X131702959Y-61370946D01*
X131702959Y-61370946D02*
X131893847Y-61370946D01*
X131893847Y-61370946D02*
X131989292Y-61323224D01*
X131989292Y-61323224D02*
X132037014Y-61275501D01*
X132037014Y-61275501D02*
X132084736Y-61180057D01*
X132084736Y-61180057D02*
X132084736Y-60368781D01*
X132991457Y-60702836D02*
X132991457Y-61370946D01*
X132752846Y-60321059D02*
X132514235Y-61036891D01*
X132514235Y-61036891D02*
X133134623Y-61036891D01*
X97040476Y-59584819D02*
X97040476Y-60299104D01*
X97040476Y-60299104D02*
X96992857Y-60441961D01*
X96992857Y-60441961D02*
X96897619Y-60537200D01*
X96897619Y-60537200D02*
X96754762Y-60584819D01*
X96754762Y-60584819D02*
X96659524Y-60584819D01*
X98040476Y-60584819D02*
X97469048Y-60584819D01*
X97754762Y-60584819D02*
X97754762Y-59584819D01*
X97754762Y-59584819D02*
X97659524Y-59727676D01*
X97659524Y-59727676D02*
X97564286Y-59822914D01*
X97564286Y-59822914D02*
X97469048Y-59870533D01*
X98992857Y-60584819D02*
X98421429Y-60584819D01*
X98707143Y-60584819D02*
X98707143Y-59584819D01*
X98707143Y-59584819D02*
X98611905Y-59727676D01*
X98611905Y-59727676D02*
X98516667Y-59822914D01*
X98516667Y-59822914D02*
X98421429Y-59870533D01*
X157784819Y-63283333D02*
X158499104Y-63283333D01*
X158499104Y-63283333D02*
X158641961Y-63330952D01*
X158641961Y-63330952D02*
X158737200Y-63426190D01*
X158737200Y-63426190D02*
X158784819Y-63569047D01*
X158784819Y-63569047D02*
X158784819Y-63664285D01*
X157784819Y-62378571D02*
X157784819Y-62569047D01*
X157784819Y-62569047D02*
X157832438Y-62664285D01*
X157832438Y-62664285D02*
X157880057Y-62711904D01*
X157880057Y-62711904D02*
X158022914Y-62807142D01*
X158022914Y-62807142D02*
X158213390Y-62854761D01*
X158213390Y-62854761D02*
X158594342Y-62854761D01*
X158594342Y-62854761D02*
X158689580Y-62807142D01*
X158689580Y-62807142D02*
X158737200Y-62759523D01*
X158737200Y-62759523D02*
X158784819Y-62664285D01*
X158784819Y-62664285D02*
X158784819Y-62473809D01*
X158784819Y-62473809D02*
X158737200Y-62378571D01*
X158737200Y-62378571D02*
X158689580Y-62330952D01*
X158689580Y-62330952D02*
X158594342Y-62283333D01*
X158594342Y-62283333D02*
X158356247Y-62283333D01*
X158356247Y-62283333D02*
X158261009Y-62330952D01*
X158261009Y-62330952D02*
X158213390Y-62378571D01*
X158213390Y-62378571D02*
X158165771Y-62473809D01*
X158165771Y-62473809D02*
X158165771Y-62664285D01*
X158165771Y-62664285D02*
X158213390Y-62759523D01*
X158213390Y-62759523D02*
X158261009Y-62807142D01*
X158261009Y-62807142D02*
X158356247Y-62854761D01*
X127756666Y-55444819D02*
X127756666Y-56159104D01*
X127756666Y-56159104D02*
X127709047Y-56301961D01*
X127709047Y-56301961D02*
X127613809Y-56397200D01*
X127613809Y-56397200D02*
X127470952Y-56444819D01*
X127470952Y-56444819D02*
X127375714Y-56444819D01*
X128232857Y-56444819D02*
X128232857Y-55444819D01*
X128232857Y-55444819D02*
X128613809Y-55444819D01*
X128613809Y-55444819D02*
X128709047Y-55492438D01*
X128709047Y-55492438D02*
X128756666Y-55540057D01*
X128756666Y-55540057D02*
X128804285Y-55635295D01*
X128804285Y-55635295D02*
X128804285Y-55778152D01*
X128804285Y-55778152D02*
X128756666Y-55873390D01*
X128756666Y-55873390D02*
X128709047Y-55921009D01*
X128709047Y-55921009D02*
X128613809Y-55968628D01*
X128613809Y-55968628D02*
X128232857Y-55968628D01*
X129709047Y-55444819D02*
X129232857Y-55444819D01*
X129232857Y-55444819D02*
X129185238Y-55921009D01*
X129185238Y-55921009D02*
X129232857Y-55873390D01*
X129232857Y-55873390D02*
X129328095Y-55825771D01*
X129328095Y-55825771D02*
X129566190Y-55825771D01*
X129566190Y-55825771D02*
X129661428Y-55873390D01*
X129661428Y-55873390D02*
X129709047Y-55921009D01*
X129709047Y-55921009D02*
X129756666Y-56016247D01*
X129756666Y-56016247D02*
X129756666Y-56254342D01*
X129756666Y-56254342D02*
X129709047Y-56349580D01*
X129709047Y-56349580D02*
X129661428Y-56397200D01*
X129661428Y-56397200D02*
X129566190Y-56444819D01*
X129566190Y-56444819D02*
X129328095Y-56444819D01*
X129328095Y-56444819D02*
X129232857Y-56397200D01*
X129232857Y-56397200D02*
X129185238Y-56349580D01*
X127756666Y-58994819D02*
X127756666Y-59709104D01*
X127756666Y-59709104D02*
X127709047Y-59851961D01*
X127709047Y-59851961D02*
X127613809Y-59947200D01*
X127613809Y-59947200D02*
X127470952Y-59994819D01*
X127470952Y-59994819D02*
X127375714Y-59994819D01*
X128232857Y-59994819D02*
X128232857Y-58994819D01*
X128232857Y-58994819D02*
X128613809Y-58994819D01*
X128613809Y-58994819D02*
X128709047Y-59042438D01*
X128709047Y-59042438D02*
X128756666Y-59090057D01*
X128756666Y-59090057D02*
X128804285Y-59185295D01*
X128804285Y-59185295D02*
X128804285Y-59328152D01*
X128804285Y-59328152D02*
X128756666Y-59423390D01*
X128756666Y-59423390D02*
X128709047Y-59471009D01*
X128709047Y-59471009D02*
X128613809Y-59518628D01*
X128613809Y-59518628D02*
X128232857Y-59518628D01*
X129661428Y-58994819D02*
X129470952Y-58994819D01*
X129470952Y-58994819D02*
X129375714Y-59042438D01*
X129375714Y-59042438D02*
X129328095Y-59090057D01*
X129328095Y-59090057D02*
X129232857Y-59232914D01*
X129232857Y-59232914D02*
X129185238Y-59423390D01*
X129185238Y-59423390D02*
X129185238Y-59804342D01*
X129185238Y-59804342D02*
X129232857Y-59899580D01*
X129232857Y-59899580D02*
X129280476Y-59947200D01*
X129280476Y-59947200D02*
X129375714Y-59994819D01*
X129375714Y-59994819D02*
X129566190Y-59994819D01*
X129566190Y-59994819D02*
X129661428Y-59947200D01*
X129661428Y-59947200D02*
X129709047Y-59899580D01*
X129709047Y-59899580D02*
X129756666Y-59804342D01*
X129756666Y-59804342D02*
X129756666Y-59566247D01*
X129756666Y-59566247D02*
X129709047Y-59471009D01*
X129709047Y-59471009D02*
X129661428Y-59423390D01*
X129661428Y-59423390D02*
X129566190Y-59375771D01*
X129566190Y-59375771D02*
X129375714Y-59375771D01*
X129375714Y-59375771D02*
X129280476Y-59423390D01*
X129280476Y-59423390D02*
X129232857Y-59471009D01*
X129232857Y-59471009D02*
X129185238Y-59566247D01*
X168974819Y-104306666D02*
X168498628Y-104639999D01*
X168974819Y-104878094D02*
X167974819Y-104878094D01*
X167974819Y-104878094D02*
X167974819Y-104497142D01*
X167974819Y-104497142D02*
X168022438Y-104401904D01*
X168022438Y-104401904D02*
X168070057Y-104354285D01*
X168070057Y-104354285D02*
X168165295Y-104306666D01*
X168165295Y-104306666D02*
X168308152Y-104306666D01*
X168308152Y-104306666D02*
X168403390Y-104354285D01*
X168403390Y-104354285D02*
X168451009Y-104401904D01*
X168451009Y-104401904D02*
X168498628Y-104497142D01*
X168498628Y-104497142D02*
X168498628Y-104878094D01*
X168974819Y-103354285D02*
X168974819Y-103925713D01*
X168974819Y-103639999D02*
X167974819Y-103639999D01*
X167974819Y-103639999D02*
X168117676Y-103735237D01*
X168117676Y-103735237D02*
X168212914Y-103830475D01*
X168212914Y-103830475D02*
X168260533Y-103925713D01*
X193878095Y-99586819D02*
X194449523Y-99586819D01*
X194163809Y-100586819D02*
X194163809Y-99586819D01*
X194782857Y-100586819D02*
X194782857Y-99586819D01*
X194782857Y-99586819D02*
X195163809Y-99586819D01*
X195163809Y-99586819D02*
X195259047Y-99634438D01*
X195259047Y-99634438D02*
X195306666Y-99682057D01*
X195306666Y-99682057D02*
X195354285Y-99777295D01*
X195354285Y-99777295D02*
X195354285Y-99920152D01*
X195354285Y-99920152D02*
X195306666Y-100015390D01*
X195306666Y-100015390D02*
X195259047Y-100063009D01*
X195259047Y-100063009D02*
X195163809Y-100110628D01*
X195163809Y-100110628D02*
X194782857Y-100110628D01*
X196306666Y-100586819D02*
X195735238Y-100586819D01*
X196020952Y-100586819D02*
X196020952Y-99586819D01*
X196020952Y-99586819D02*
X195925714Y-99729676D01*
X195925714Y-99729676D02*
X195830476Y-99824914D01*
X195830476Y-99824914D02*
X195735238Y-99872533D01*
X127746666Y-44494819D02*
X127746666Y-45209104D01*
X127746666Y-45209104D02*
X127699047Y-45351961D01*
X127699047Y-45351961D02*
X127603809Y-45447200D01*
X127603809Y-45447200D02*
X127460952Y-45494819D01*
X127460952Y-45494819D02*
X127365714Y-45494819D01*
X128222857Y-45494819D02*
X128222857Y-44494819D01*
X128222857Y-44494819D02*
X128603809Y-44494819D01*
X128603809Y-44494819D02*
X128699047Y-44542438D01*
X128699047Y-44542438D02*
X128746666Y-44590057D01*
X128746666Y-44590057D02*
X128794285Y-44685295D01*
X128794285Y-44685295D02*
X128794285Y-44828152D01*
X128794285Y-44828152D02*
X128746666Y-44923390D01*
X128746666Y-44923390D02*
X128699047Y-44971009D01*
X128699047Y-44971009D02*
X128603809Y-45018628D01*
X128603809Y-45018628D02*
X128222857Y-45018628D01*
X129175238Y-44590057D02*
X129222857Y-44542438D01*
X129222857Y-44542438D02*
X129318095Y-44494819D01*
X129318095Y-44494819D02*
X129556190Y-44494819D01*
X129556190Y-44494819D02*
X129651428Y-44542438D01*
X129651428Y-44542438D02*
X129699047Y-44590057D01*
X129699047Y-44590057D02*
X129746666Y-44685295D01*
X129746666Y-44685295D02*
X129746666Y-44780533D01*
X129746666Y-44780533D02*
X129699047Y-44923390D01*
X129699047Y-44923390D02*
X129127619Y-45494819D01*
X129127619Y-45494819D02*
X129746666Y-45494819D01*
X127756666Y-51894819D02*
X127756666Y-52609104D01*
X127756666Y-52609104D02*
X127709047Y-52751961D01*
X127709047Y-52751961D02*
X127613809Y-52847200D01*
X127613809Y-52847200D02*
X127470952Y-52894819D01*
X127470952Y-52894819D02*
X127375714Y-52894819D01*
X128232857Y-52894819D02*
X128232857Y-51894819D01*
X128232857Y-51894819D02*
X128613809Y-51894819D01*
X128613809Y-51894819D02*
X128709047Y-51942438D01*
X128709047Y-51942438D02*
X128756666Y-51990057D01*
X128756666Y-51990057D02*
X128804285Y-52085295D01*
X128804285Y-52085295D02*
X128804285Y-52228152D01*
X128804285Y-52228152D02*
X128756666Y-52323390D01*
X128756666Y-52323390D02*
X128709047Y-52371009D01*
X128709047Y-52371009D02*
X128613809Y-52418628D01*
X128613809Y-52418628D02*
X128232857Y-52418628D01*
X129661428Y-52228152D02*
X129661428Y-52894819D01*
X129423333Y-51847200D02*
X129185238Y-52561485D01*
X129185238Y-52561485D02*
X129804285Y-52561485D01*
X184318095Y-105054819D02*
X184318095Y-105864342D01*
X184318095Y-105864342D02*
X184365714Y-105959580D01*
X184365714Y-105959580D02*
X184413333Y-106007200D01*
X184413333Y-106007200D02*
X184508571Y-106054819D01*
X184508571Y-106054819D02*
X184699047Y-106054819D01*
X184699047Y-106054819D02*
X184794285Y-106007200D01*
X184794285Y-106007200D02*
X184841904Y-105959580D01*
X184841904Y-105959580D02*
X184889523Y-105864342D01*
X184889523Y-105864342D02*
X184889523Y-105054819D01*
X185270476Y-105054819D02*
X185889523Y-105054819D01*
X185889523Y-105054819D02*
X185556190Y-105435771D01*
X185556190Y-105435771D02*
X185699047Y-105435771D01*
X185699047Y-105435771D02*
X185794285Y-105483390D01*
X185794285Y-105483390D02*
X185841904Y-105531009D01*
X185841904Y-105531009D02*
X185889523Y-105626247D01*
X185889523Y-105626247D02*
X185889523Y-105864342D01*
X185889523Y-105864342D02*
X185841904Y-105959580D01*
X185841904Y-105959580D02*
X185794285Y-106007200D01*
X185794285Y-106007200D02*
X185699047Y-106054819D01*
X185699047Y-106054819D02*
X185413333Y-106054819D01*
X185413333Y-106054819D02*
X185318095Y-106007200D01*
X185318095Y-106007200D02*
X185270476Y-105959580D01*
X168924819Y-99516666D02*
X168448628Y-99849999D01*
X168924819Y-100088094D02*
X167924819Y-100088094D01*
X167924819Y-100088094D02*
X167924819Y-99707142D01*
X167924819Y-99707142D02*
X167972438Y-99611904D01*
X167972438Y-99611904D02*
X168020057Y-99564285D01*
X168020057Y-99564285D02*
X168115295Y-99516666D01*
X168115295Y-99516666D02*
X168258152Y-99516666D01*
X168258152Y-99516666D02*
X168353390Y-99564285D01*
X168353390Y-99564285D02*
X168401009Y-99611904D01*
X168401009Y-99611904D02*
X168448628Y-99707142D01*
X168448628Y-99707142D02*
X168448628Y-100088094D01*
X168020057Y-99135713D02*
X167972438Y-99088094D01*
X167972438Y-99088094D02*
X167924819Y-98992856D01*
X167924819Y-98992856D02*
X167924819Y-98754761D01*
X167924819Y-98754761D02*
X167972438Y-98659523D01*
X167972438Y-98659523D02*
X168020057Y-98611904D01*
X168020057Y-98611904D02*
X168115295Y-98564285D01*
X168115295Y-98564285D02*
X168210533Y-98564285D01*
X168210533Y-98564285D02*
X168353390Y-98611904D01*
X168353390Y-98611904D02*
X168924819Y-99183332D01*
X168924819Y-99183332D02*
X168924819Y-98564285D01*
X155216666Y-69564819D02*
X155216666Y-70279104D01*
X155216666Y-70279104D02*
X155169047Y-70421961D01*
X155169047Y-70421961D02*
X155073809Y-70517200D01*
X155073809Y-70517200D02*
X154930952Y-70564819D01*
X154930952Y-70564819D02*
X154835714Y-70564819D01*
X155740476Y-70564819D02*
X155930952Y-70564819D01*
X155930952Y-70564819D02*
X156026190Y-70517200D01*
X156026190Y-70517200D02*
X156073809Y-70469580D01*
X156073809Y-70469580D02*
X156169047Y-70326723D01*
X156169047Y-70326723D02*
X156216666Y-70136247D01*
X156216666Y-70136247D02*
X156216666Y-69755295D01*
X156216666Y-69755295D02*
X156169047Y-69660057D01*
X156169047Y-69660057D02*
X156121428Y-69612438D01*
X156121428Y-69612438D02*
X156026190Y-69564819D01*
X156026190Y-69564819D02*
X155835714Y-69564819D01*
X155835714Y-69564819D02*
X155740476Y-69612438D01*
X155740476Y-69612438D02*
X155692857Y-69660057D01*
X155692857Y-69660057D02*
X155645238Y-69755295D01*
X155645238Y-69755295D02*
X155645238Y-69993390D01*
X155645238Y-69993390D02*
X155692857Y-70088628D01*
X155692857Y-70088628D02*
X155740476Y-70136247D01*
X155740476Y-70136247D02*
X155835714Y-70183866D01*
X155835714Y-70183866D02*
X156026190Y-70183866D01*
X156026190Y-70183866D02*
X156121428Y-70136247D01*
X156121428Y-70136247D02*
X156169047Y-70088628D01*
X156169047Y-70088628D02*
X156216666Y-69993390D01*
X108044819Y-97803333D02*
X108759104Y-97803333D01*
X108759104Y-97803333D02*
X108901961Y-97850952D01*
X108901961Y-97850952D02*
X108997200Y-97946190D01*
X108997200Y-97946190D02*
X109044819Y-98089047D01*
X109044819Y-98089047D02*
X109044819Y-98184285D01*
X108044819Y-97422380D02*
X108044819Y-96755714D01*
X108044819Y-96755714D02*
X109044819Y-97184285D01*
X193878095Y-105636819D02*
X194449523Y-105636819D01*
X194163809Y-106636819D02*
X194163809Y-105636819D01*
X194782857Y-106636819D02*
X194782857Y-105636819D01*
X194782857Y-105636819D02*
X195163809Y-105636819D01*
X195163809Y-105636819D02*
X195259047Y-105684438D01*
X195259047Y-105684438D02*
X195306666Y-105732057D01*
X195306666Y-105732057D02*
X195354285Y-105827295D01*
X195354285Y-105827295D02*
X195354285Y-105970152D01*
X195354285Y-105970152D02*
X195306666Y-106065390D01*
X195306666Y-106065390D02*
X195259047Y-106113009D01*
X195259047Y-106113009D02*
X195163809Y-106160628D01*
X195163809Y-106160628D02*
X194782857Y-106160628D01*
X195735238Y-105732057D02*
X195782857Y-105684438D01*
X195782857Y-105684438D02*
X195878095Y-105636819D01*
X195878095Y-105636819D02*
X196116190Y-105636819D01*
X196116190Y-105636819D02*
X196211428Y-105684438D01*
X196211428Y-105684438D02*
X196259047Y-105732057D01*
X196259047Y-105732057D02*
X196306666Y-105827295D01*
X196306666Y-105827295D02*
X196306666Y-105922533D01*
X196306666Y-105922533D02*
X196259047Y-106065390D01*
X196259047Y-106065390D02*
X195687619Y-106636819D01*
X195687619Y-106636819D02*
X196306666Y-106636819D01*
D13*
%TO.C,JP3*%
X127190000Y-49690000D02*
X129990000Y-49690000D01*
X127190000Y-51690000D02*
X127190000Y-49690000D01*
X129990000Y-49690000D02*
X129990000Y-51690000D01*
X129990000Y-51690000D02*
X127190000Y-51690000D01*
%TO.C,J10*%
X99348900Y-110546100D02*
X99348900Y-123306100D01*
X99348900Y-110546100D02*
X102008900Y-110546100D01*
X99348900Y-123306100D02*
X102008900Y-123306100D01*
X100678900Y-107946100D02*
X102008900Y-107946100D01*
X102008900Y-107946100D02*
X102008900Y-109276100D01*
X102008900Y-110546100D02*
X102008900Y-123306100D01*
D14*
%TO.C,DS1*%
X159077500Y-56100000D02*
X192777500Y-56100000D01*
X159077500Y-91600000D02*
X159077500Y-56100000D01*
X192777500Y-56100000D02*
X192777500Y-91600000D01*
X192777500Y-91600000D02*
X159077500Y-91600000D01*
D15*
X158627500Y-77660000D02*
G75*
G02*
X158427500Y-77660000I-100000J0D01*
G01*
X158427500Y-77660000D02*
G75*
G02*
X158627500Y-77660000I100000J0D01*
G01*
D13*
%TO.C,J2*%
X108770000Y-108550000D02*
X110100000Y-108550000D01*
X108770000Y-109880000D02*
X108770000Y-108550000D01*
X111370000Y-108550000D02*
X124130000Y-108550000D01*
X111370000Y-111210000D02*
X111370000Y-108550000D01*
X111370000Y-111210000D02*
X124130000Y-111210000D01*
X124130000Y-111210000D02*
X124130000Y-108550000D01*
%TO.C,U5*%
X183060000Y-96760000D02*
X186820000Y-96760000D01*
X183060000Y-103580000D02*
X186820000Y-103580000D01*
X186820000Y-96760000D02*
X186820000Y-98020000D01*
X186820000Y-103580000D02*
X186820000Y-102320000D01*
X181780000Y-96860000D02*
X181540000Y-96530000D01*
X182020000Y-96530000D01*
X181780000Y-96860000D01*
G36*
X181780000Y-96860000D02*
G01*
X181540000Y-96530000D01*
X182020000Y-96530000D01*
X181780000Y-96860000D01*
G37*
%TO.C,JP1*%
X127080000Y-42030000D02*
X129880000Y-42030000D01*
X127080000Y-44030000D02*
X127080000Y-42030000D01*
X129880000Y-42030000D02*
X129880000Y-44030000D01*
X129880000Y-44030000D02*
X127080000Y-44030000D01*
D14*
%TO.C,U1*%
X128950000Y-96035000D02*
X157460000Y-96035000D01*
X128950000Y-146985000D02*
X128950000Y-96035000D01*
X128950000Y-146985000D02*
X128950000Y-96035000D01*
X134400000Y-96035000D02*
X128950000Y-96035000D01*
X139680000Y-146985000D02*
X128950000Y-146985000D01*
X146391000Y-146985000D02*
X139680000Y-146985000D01*
X152090000Y-96035000D02*
X134400000Y-96035000D01*
X157460000Y-96035000D02*
X152090000Y-96035000D01*
X157460000Y-96035000D02*
X157460000Y-146985000D01*
X157460000Y-96035000D02*
X157460000Y-146985000D01*
X157460000Y-146985000D02*
X128950000Y-146985000D01*
X157460000Y-146985000D02*
X146391000Y-146985000D01*
D15*
X158130000Y-137025000D02*
G75*
G02*
X157930000Y-137025000I-100000J0D01*
G01*
X157930000Y-137025000D02*
G75*
G02*
X158130000Y-137025000I100000J0D01*
G01*
D13*
%TO.C,J8*%
X128560000Y-71110000D02*
X129940000Y-71110000D01*
X128560000Y-72490000D02*
X128560000Y-71110000D01*
X128560000Y-73760000D02*
X128560000Y-91650000D01*
X128560000Y-73760000D02*
X131320000Y-73760000D01*
X128560000Y-91650000D02*
X131320000Y-91650000D01*
X131320000Y-73760000D02*
X131320000Y-91650000D01*
%TO.C,J1*%
X108770000Y-131390000D02*
X110100000Y-131390000D01*
X108770000Y-132720000D02*
X108770000Y-131390000D01*
X111370000Y-131390000D02*
X124130000Y-131390000D01*
X111370000Y-134050000D02*
X111370000Y-131390000D01*
X111370000Y-134050000D02*
X124130000Y-134050000D01*
X124130000Y-134050000D02*
X124130000Y-131390000D01*
D15*
%TO.C,U4*%
X133750000Y-41630000D02*
X141340000Y-35100000D01*
X133750000Y-68040000D02*
X133750000Y-41630000D01*
X141340000Y-35100000D02*
X150540000Y-35100000D01*
X158130000Y-41630000D02*
X150540000Y-35100000D01*
X158130000Y-41630000D02*
X158130000Y-68040000D01*
X158130000Y-68040000D02*
X133750000Y-68040000D01*
D13*
%TO.C,J11*%
X96470000Y-61130000D02*
X97850000Y-61130000D01*
X96470000Y-62510000D02*
X96470000Y-61130000D01*
X96470000Y-63780000D02*
X96470000Y-81670000D01*
X96470000Y-63780000D02*
X99230000Y-63780000D01*
X96470000Y-81670000D02*
X99230000Y-81670000D01*
X99230000Y-63780000D02*
X99230000Y-81670000D01*
%TO.C,J6*%
X159770000Y-61620000D02*
X161100000Y-61620000D01*
X159770000Y-62950000D02*
X159770000Y-61620000D01*
X162370000Y-61620000D02*
X175130000Y-61620000D01*
X162370000Y-64280000D02*
X162370000Y-61620000D01*
X162370000Y-64280000D02*
X175130000Y-64280000D01*
X175130000Y-64280000D02*
X175130000Y-61620000D01*
%TO.C,JP5*%
X127190000Y-56790000D02*
X129990000Y-56790000D01*
X127190000Y-58790000D02*
X127190000Y-56790000D01*
X129990000Y-56790000D02*
X129990000Y-58790000D01*
X129990000Y-58790000D02*
X127190000Y-58790000D01*
%TO.C,JP6*%
X127190000Y-60340000D02*
X129990000Y-60340000D01*
X127190000Y-62340000D02*
X127190000Y-60340000D01*
X129990000Y-60340000D02*
X129990000Y-62340000D01*
X129990000Y-62340000D02*
X127190000Y-62340000D01*
%TO.C,R1*%
X162340000Y-104140000D02*
X163450000Y-104140000D01*
X174700000Y-104140000D02*
X173590000Y-104140000D01*
X163450000Y-102220000D02*
X173590000Y-102220000D01*
X173590000Y-106060000D01*
X163450000Y-106060000D01*
X163450000Y-102220000D01*
%TO.C,TP1*%
X192940000Y-100830000D02*
X197340000Y-100830000D01*
X192940000Y-105230000D02*
X192940000Y-100830000D01*
X197340000Y-100830000D02*
X197340000Y-105230000D01*
X197340000Y-105230000D02*
X192940000Y-105230000D01*
%TO.C,JP2*%
X127160000Y-45870000D02*
X129960000Y-45870000D01*
X127160000Y-47870000D02*
X127160000Y-45870000D01*
X129960000Y-45870000D02*
X129960000Y-47870000D01*
X129960000Y-47870000D02*
X127160000Y-47870000D01*
%TO.C,JP4*%
X127190000Y-53240000D02*
X129990000Y-53240000D01*
X127190000Y-55240000D02*
X127190000Y-53240000D01*
X129990000Y-53240000D02*
X129990000Y-55240000D01*
X129990000Y-55240000D02*
X127190000Y-55240000D01*
%TO.C,U3*%
X183230000Y-106690000D02*
X186990000Y-106690000D01*
X183230000Y-113510000D02*
X186990000Y-113510000D01*
X186990000Y-106690000D02*
X186990000Y-107950000D01*
X186990000Y-113510000D02*
X186990000Y-112250000D01*
X181950000Y-106790000D02*
X181710000Y-106460000D01*
X182190000Y-106460000D01*
X181950000Y-106790000D01*
G36*
X181950000Y-106790000D02*
G01*
X181710000Y-106460000D01*
X182190000Y-106460000D01*
X181950000Y-106790000D01*
G37*
%TO.C,R2*%
X162290000Y-99350000D02*
X163400000Y-99350000D01*
X174650000Y-99350000D02*
X173540000Y-99350000D01*
X163400000Y-97430000D02*
X173540000Y-97430000D01*
X173540000Y-101270000D01*
X163400000Y-101270000D01*
X163400000Y-97430000D01*
%TO.C,J9*%
X154170000Y-71110000D02*
X155550000Y-71110000D01*
X154170000Y-72490000D02*
X154170000Y-71110000D01*
X154170000Y-73760000D02*
X154170000Y-91650000D01*
X154170000Y-73760000D02*
X156930000Y-73760000D01*
X154170000Y-91650000D02*
X156930000Y-91650000D01*
X156930000Y-73760000D02*
X156930000Y-91650000D01*
%TO.C,J7*%
X110030000Y-96140000D02*
X111360000Y-96140000D01*
X110030000Y-97470000D02*
X110030000Y-96140000D01*
X112630000Y-96140000D02*
X120310000Y-96140000D01*
X112630000Y-98800000D02*
X112630000Y-96140000D01*
X112630000Y-98800000D02*
X120310000Y-98800000D01*
X120310000Y-98800000D02*
X120310000Y-96140000D01*
%TO.C,TP2*%
X192940000Y-106880000D02*
X197340000Y-106880000D01*
X192940000Y-111280000D02*
X192940000Y-106880000D01*
X197340000Y-106880000D02*
X197340000Y-111280000D01*
X197340000Y-111280000D02*
X192940000Y-111280000D01*
%TD*%
M02*
