M48
; DRILL file {KiCad 9.0.1} date 2025-10-16T23:05:16+0530
; FORMAT={-:-/ absolute / metric / decimal}
; #@! TF.CreationDate,2025-10-16T23:05:16+05:30
; #@! TF.GenerationSoftware,Kicad,Pcbnew,9.0.1
; #@! TF.FileFunction,MixedPlating,1,2
FMAT,2
METRIC
; #@! TA.AperFunction,Plated,PTH,ViaDrill
T1C0.300
; #@! TA.AperFunction,Plated,PTH,ComponentDrill
T2C0.800
; #@! TA.AperFunction,Plated,PTH,ComponentDrill
T3C1.000
; #@! TA.AperFunction,Plated,PTH,ComponentDrill
T4C1.020
; #@! TA.AperFunction,Plated,PTH,ComponentDrill
T5C1.200
; #@! TA.AperFunction,NonPlated,NPTH,ComponentDrill
T6C3.000
%
G90
G05
T1
X94.907Y-128.271
X97.891Y-129.067
X100.686Y-125.273
X100.702Y-137.402
X100.872Y-89.485
X102.092Y-127.052
X115.789Y-92.469
X120.818Y-102.358
X121.757Y-98.436
X124.691Y-77.6
X124.74Y-62.634
X124.74Y-68.601
X126.695Y-122.304
X126.714Y-98.436
X127.319Y-73.338
X128.936Y-70.866
X130.327Y-61.804
X130.707Y-65.686
X131.007Y-62.635
X133.558Y-85.706
X133.69Y-125.602
X134.036Y-83.634
X136.745Y-62.681
X139.657Y-128.271
X151.41Y-75.11
X151.589Y-80.536
X153.688Y-83.299
X154.193Y-101.419
X154.193Y-109.342
X154.573Y-140.205
X157.724Y-89.529
X158.349Y-80.535
X158.436Y-95.452
X158.436Y-104.403
X159.159Y-101.148
X163.564Y-109.077
X163.792Y-74.836
X164.453Y-80.535
X169.49Y-116.337
X178.44Y-86.502
X178.44Y-134.238
X180.431Y-101.412
T2
X134.94Y-42.82
X134.94Y-44.82
X134.94Y-46.82
X134.94Y-48.82
X134.94Y-50.82
X134.94Y-52.82
X134.94Y-54.82
X134.94Y-56.82
X134.94Y-58.82
X134.94Y-60.82
X156.94Y-42.82
X156.94Y-44.82
X156.94Y-46.82
X156.94Y-48.82
X156.94Y-50.82
X156.94Y-52.82
X156.94Y-54.82
X156.94Y-56.82
X156.94Y-58.82
X156.94Y-60.82
T3
X90.88Y-96.64
X93.42Y-96.64
X95.96Y-96.64
X97.85Y-62.51
X97.85Y-65.05
X97.85Y-67.59
X97.85Y-70.13
X97.85Y-72.67
X97.85Y-75.21
X97.85Y-77.75
X97.85Y-80.29
X98.5Y-96.64
X100.679Y-109.276
X100.679Y-111.816
X100.679Y-114.356
X100.679Y-116.896
X100.679Y-119.436
X100.679Y-121.976
X110.1Y-109.88
X110.1Y-132.72
X111.36Y-97.47
X111.417Y-103.074
X112.64Y-109.88
X112.64Y-132.72
X113.9Y-97.47
X113.957Y-103.074
X115.18Y-109.88
X115.18Y-132.72
X116.44Y-97.47
X116.497Y-103.074
X117.72Y-109.88
X117.72Y-132.72
X118.98Y-97.47
X119.037Y-103.074
X120.26Y-109.88
X120.26Y-132.72
X122.8Y-109.88
X122.8Y-132.72
X129.94Y-72.49
X129.94Y-75.03
X129.94Y-77.57
X129.94Y-80.11
X129.94Y-82.65
X129.94Y-85.19
X129.94Y-87.73
X129.94Y-90.27
X136.515Y-89.705
X139.055Y-89.705
X141.595Y-89.705
X144.135Y-89.705
X146.675Y-89.705
X149.215Y-89.705
X155.55Y-72.49
X155.55Y-75.03
X155.55Y-77.57
X155.55Y-80.11
X155.55Y-82.65
X155.55Y-85.19
X155.55Y-87.73
X155.55Y-90.27
X160.377Y-70.04
X160.377Y-72.58
X160.377Y-75.12
X160.377Y-77.66
X161.1Y-62.95
X162.27Y-116.42
X162.27Y-118.96
X162.27Y-121.5
X162.27Y-124.04
X162.27Y-126.58
X162.27Y-129.12
X162.27Y-131.66
X162.27Y-134.2
X163.64Y-62.95
X166.18Y-62.95
X168.72Y-62.95
X171.26Y-62.95
X173.8Y-62.95
T4
X130.48Y-101.465
X130.48Y-104.005
X130.48Y-106.545
X130.48Y-109.085
X130.48Y-111.625
X130.48Y-114.165
X130.48Y-116.705
X130.48Y-119.245
X130.48Y-121.785
X130.48Y-124.325
X130.48Y-126.865
X130.48Y-129.405
X130.48Y-131.945
X130.48Y-134.485
X130.48Y-137.025
X155.88Y-101.465
X155.88Y-104.005
X155.88Y-106.545
X155.88Y-109.085
X155.88Y-111.625
X155.88Y-114.165
X155.88Y-116.705
X155.88Y-119.245
X155.88Y-121.785
X155.88Y-124.325
X155.88Y-126.865
X155.88Y-129.405
X155.88Y-131.945
X155.88Y-134.485
X155.88Y-137.025
T5
X160.85Y-99.35
X160.9Y-104.14
X176.09Y-99.35
X176.14Y-104.14
T6
X104.537Y-101.874
X125.187Y-101.864
X130.95Y-98.035
X130.95Y-144.985
X155.46Y-98.035
X155.46Y-144.985
X161.077Y-58.1
X161.077Y-89.6
X190.778Y-58.1
X190.778Y-89.6
M30
